# File produced by Open Asset Import Library (http://www.assimp.sf.net)
# (assimp v3.1.151885474)

mtllib ChurchHigh.mtl

# vertex positions
v -1.905231 1.607725 -0.367066
v -1.978245 1.607725 -0.374257
v -1.978245 2.179470 -0.374257
v -1.905231 2.179470 -0.367066
v -1.835023 1.607725 -0.345768
v -1.835023 2.179470 -0.345768
v -1.770319 1.607725 -0.311183
v -1.770319 2.179470 -0.311183
v -1.713605 1.607725 -0.264640
v -1.713605 2.179470 -0.264640
v -1.667061 1.607725 -0.207926
v -1.667061 2.179470 -0.207926
v -1.632476 1.607725 -0.143222
v -1.632476 2.179470 -0.143222
v -1.611179 1.607725 -0.073014
v -1.611179 2.179470 -0.073014
v -1.603988 1.607725 0.000000
v -1.603988 2.179470 0.000000
v -1.611179 1.607725 0.073014
v -1.611179 2.179470 0.073014
v -1.632476 1.607725 0.143222
v -1.632476 2.179470 0.143222
v -1.667061 1.607725 0.207926
v -1.667061 2.179470 0.207926
v -1.713605 1.607725 0.264640
v -1.713605 2.179470 0.264640
v -1.770319 1.607725 0.311183
v -1.770319 2.179470 0.311183
v -1.835023 1.607725 0.345768
v -1.835023 2.179470 0.345768
v -1.905231 1.607725 0.367066
v -1.905231 2.179470 0.367066
v -1.978245 1.607725 0.374257
v -1.978245 2.179470 0.374257
v -2.051259 1.607725 0.367066
v -2.051259 2.179470 0.367066
v -2.121466 1.607725 0.345768
v -2.121466 2.179470 0.345768
v -2.186171 1.607725 0.311183
v -2.186171 2.179470 0.311183
v -2.242884 1.607725 0.264640
v -2.242884 2.179470 0.264640
v -2.289428 1.607725 0.207926
v -2.289428 2.179470 0.207926
v -2.324013 1.607725 0.143222
v -2.324013 2.179470 0.143222
v -2.345310 1.607725 0.073014
v -2.345310 2.179470 0.073014
v -2.352501 1.607725 0.000000
v -2.352501 2.179470 0.000000
v -2.345310 1.607725 -0.073014
v -2.345310 2.179470 -0.073014
v -2.324013 1.607725 -0.143222
v -2.324013 2.179470 -0.143222
v -2.289428 1.607725 -0.207926
v -2.289428 2.179470 -0.207926
v -2.242884 1.607725 -0.264640
v -2.242884 2.179470 -0.264640
v -2.186171 1.607725 -0.311183
v -2.186171 2.179470 -0.311183
v -2.121466 1.607725 -0.345768
v -2.121466 2.179470 -0.345768
v -1.713609 2.179470 -0.176824
v -1.753190 2.179470 -0.225054
v -2.051259 1.607725 -0.367066
v -2.051259 2.179470 -0.367066
v -1.753190 2.662741 0.225054
v -1.753190 2.179470 0.225054
v -1.713609 2.179470 0.176824
v -1.713609 2.662741 0.176824
v -1.856446 2.179470 0.294047
v -1.801421 2.179470 0.264636
v -2.290404 2.179470 0.062092
v -2.272292 2.179470 0.121798
v -1.916152 2.179470 -0.312159
v -1.978245 2.179470 -0.318275
v -2.040337 2.179470 -0.312159
v -1.684197 2.179470 0.121798
v -1.666085 2.179470 0.062092
v -2.155068 2.179470 0.264636
v -2.100043 2.179470 0.294047
v -2.203299 2.179470 -0.225054
v -2.242880 2.179470 -0.176824
v -1.684197 2.179470 -0.121798
v -1.916152 2.179470 0.312159
v -2.296519 2.179470 0.000000
v -1.856446 2.179470 -0.294047
v -2.203299 2.179470 0.225054
v -2.155068 2.179470 -0.264636
v -1.666085 2.179470 -0.062092
v -1.978245 2.179470 0.318275
v -2.290404 2.179470 -0.062092
v -1.801421 2.179470 -0.264636
v -2.242880 2.179470 0.176824
v -2.100043 2.179470 -0.294047
v -1.659970 2.179470 0.000000
v -2.040337 2.179470 0.312159
v -2.272292 2.179470 -0.121798
v -1.905629 2.662741 0.365062
v -1.916152 2.662741 0.312159
v -1.856446 2.662741 0.294047
v -1.835804 2.662741 0.343881
v -2.272292 2.662741 -0.121798
v -2.290404 2.662741 -0.062092
v -1.801421 2.662741 0.264636
v -2.242880 2.662741 -0.176824
v -1.916152 2.662741 -0.312159
v -1.978245 2.662741 -0.318275
v -2.203299 2.662741 -0.225054
v -1.856446 2.662741 -0.294047
v -2.155068 2.662741 -0.264636
v -1.978245 2.662741 0.318275
v -1.801421 2.662741 -0.264636
v -2.100043 2.662741 -0.294047
v -2.040337 2.662741 0.312159
v -1.753190 2.662741 -0.225054
v -2.040337 2.662741 -0.312159
v -2.100043 2.662741 0.294047
v -1.713609 2.662741 -0.176824
v -2.155068 2.662741 0.264636
v -1.684197 2.662741 -0.121798
v -2.203299 2.662741 0.225054
v -1.666085 2.662741 -0.062092
v -2.242880 2.662741 0.176824
v -1.659970 2.662741 0.000000
v -2.272292 2.662741 0.121798
v -1.666085 2.662741 0.062092
v -2.290404 2.662741 0.062092
v -1.684197 2.662741 0.121798
v -2.296519 2.662741 0.000000
v -1.985239 3.634047 0.016886
v -2.120685 2.662741 0.343881
v -2.050860 2.662741 0.365062
v -1.981810 3.634047 0.017926
v -1.835804 2.662741 -0.343881
v -1.905629 2.662741 -0.365062
v -2.185036 2.662741 -0.309485
v -2.241440 2.662741 -0.263195
v -1.978245 2.662741 0.372214
v -1.771453 2.662741 -0.309485
v -2.120685 2.662741 -0.343881
v -1.715049 2.662741 -0.263195
v -2.050860 2.662741 -0.365062
v -1.668760 2.662741 -0.206791
v -1.978245 2.662741 -0.372214
v -2.185036 2.662741 0.309485
v -1.634363 2.662741 -0.142440
v -2.241440 2.662741 0.263195
v -1.613182 2.662741 -0.072615
v -2.287730 2.662741 0.206791
v -1.606030 2.662741 0.000000
v -2.322126 2.662741 0.142440
v -1.613182 2.662741 0.072615
v -2.343307 2.662741 0.072615
v -1.634363 2.662741 0.142440
v -2.350459 2.662741 0.000000
v -1.668760 2.662741 0.206791
v -2.343307 2.662741 -0.072615
v -1.715049 2.662741 0.263195
v -2.322126 2.662741 -0.142440
v -1.771453 2.662741 0.309485
v -2.287730 2.662741 -0.206791
v -1.971250 3.634047 -0.016886
v -1.974679 3.634047 -0.017926
v -1.978245 3.634047 -0.018277
v -1.981810 3.634047 -0.017926
v -1.985239 3.634047 -0.016886
v -1.988399 3.634047 -0.015197
v -1.991169 3.634047 -0.012924
v -1.993442 3.634047 -0.010154
v -1.995131 3.634047 -0.006994
v -1.996171 3.634047 -0.003566
v -1.996522 3.634047 0.000000
v -1.996171 3.634047 0.003566
v -1.995131 3.634047 0.006994
v -1.993442 3.634047 0.010154
v -1.991169 3.634047 0.012924
v -1.988399 3.634047 0.015197
v -1.978245 3.634047 0.018277
v -1.974679 3.634047 0.017926
v -1.971250 3.634047 0.016886
v -1.968090 3.634047 0.015197
v -1.965320 3.634047 0.012924
v -1.963048 3.634047 0.010154
v -1.961359 3.634047 0.006994
v -1.960318 3.634047 0.003566
v -1.959967 3.634047 0.000000
v -1.960318 3.634047 -0.003566
v -1.961359 3.634047 -0.006994
v -1.963048 3.634047 -0.010154
v -1.965320 3.634047 -0.012924
v -1.968090 3.634047 -0.015197
v 1.000000 1.508976 0.499863
v 1.000000 2.017952 0.000000
v -1.000000 2.017952 0.000000
v -1.000000 1.000000 1.000000
v 1.000000 1.000000 1.000000
v 1.000000 1.000000 1.140309
v -0.862134 1.000000 1.140309
v 0.346019 -0.582948 -1.140309
v 1.000000 -1.000000 -1.140309
v -0.862134 -1.000000 -1.140309
v -0.208153 -0.582948 -1.140309
v 1.033229 1.594962 1.044966
v 1.033229 1.594962 1.095343
v -1.969211 2.016270 1.798310
v -1.972366 2.016270 1.000000
v -2.944733 1.000000 1.000000
v -2.941577 1.000000 1.798310
v 1.064585 0.886485 1.140309
v 1.064585 0.886485 1.070155
v 1.103687 1.000000 1.070155
v 1.103687 1.000000 1.140309
v 1.000000 0.000000 1.000000
v 1.000000 0.963264 1.000000
v 1.103687 1.000000 1.000000
v 1.064585 0.886485 1.000000
v 1.064585 -0.872361 1.000000
v 1.103687 -1.000000 1.000000
v 1.000000 -1.000000 1.000000
v 1.000000 -1.000000 1.140309
v 1.103687 -1.000000 1.140309
v 1.064585 -0.873167 1.140309
v 1.070457 1.594962 1.044966
v 1.070457 1.594962 1.095343
v 1.103687 -1.000000 1.070155
v 1.064585 -0.872764 1.070155
v -3.766080 1.000000 1.000000
v -2.944733 2.017952 0.000000
v -4.106241 2.017952 0.000000
v -1.000142 1.000000 1.798310
v -1.972366 2.017952 0.000000
v -2.984607 1.599061 1.831481
v -3.077533 1.000000 1.798913
v -3.034422 1.599061 1.831702
v -0.858978 1.000000 1.798590
v -0.858978 -1.000000 1.798590
v -0.862134 -1.000000 1.140309
v -2.941450 -1.000000 1.902415
v -2.941577 -1.000000 1.798310
v -2.941450 1.000000 1.902415
v -3.080689 1.000000 1.000602
v -3.080689 -1.000000 1.000602
v -3.077533 -1.000000 1.798913
v -2.944733 -1.000000 1.000000
v -0.858850 1.000000 1.902694
v -1.000015 1.000000 1.902415
v -1.000015 -1.000000 1.902415
v -0.858850 -1.000000 1.902694
v -3.077405 -1.000000 1.903017
v -3.077405 1.000000 1.903017
v -0.903915 1.599061 1.869401
v -0.903962 1.599061 1.831705
v -1.000142 -1.000000 1.798310
v -2.984560 1.599061 1.869626
v -3.034376 1.599061 1.869846
v -0.955077 1.599061 1.831604
v -0.955031 1.599061 1.869300
v 0.774032 -0.120520 0.342211
v 0.715100 -0.120520 0.342211
v 0.715100 -0.998628 0.342211
v 0.774032 -0.999168 0.342211
v 0.774032 0.056810 0.275603
v 0.715100 0.056810 0.275603
v 0.715100 0.009443 0.311743
v 0.774032 0.009443 0.311743
v 0.774032 0.116423 0.173656
v 0.715100 0.116423 0.173656
v 0.715100 0.093299 0.228504
v 0.774032 0.093299 0.228504
v 0.715100 -0.045575 0.334462
v 0.774032 -0.045575 0.334462
v 0.715100 0.160915 0.192517
v 0.715100 0.132034 0.261019
v 0.715100 0.124606 0.114796
v 0.715100 0.171136 0.119005
v 0.715100 0.125309 0.001469
v 0.715100 0.172013 0.000000
v 0.715100 0.086461 0.319844
v 0.715100 0.027302 0.364981
v 0.715100 -0.041412 0.393356
v 0.715100 -0.114997 0.403034
v 0.936702 0.171136 0.119005
v 0.936702 0.160915 0.192517
v 0.936702 0.132034 0.261019
v 0.936702 0.086461 0.319844
v 0.936702 0.027302 0.364981
v 0.936702 -0.041412 0.393356
v 0.936702 -0.114997 0.403034
v 0.936702 -0.999350 0.403034
v 0.715100 -0.996532 0.403034
v 0.936702 0.172013 0.000000
v 1.000000 -0.147877 0.499863
v 1.000000 -0.043635 0.486153
v 1.000000 0.072014 0.858473
v 0.774032 0.124606 0.114796
v 0.936702 -0.147877 0.499863
v 0.936702 -1.000000 0.499863
v 0.936702 0.258228 0.000000
v 0.936702 0.257497 0.097509
v 0.936702 0.243008 0.201646
v 0.936702 0.202086 0.298686
v 0.936702 0.137519 0.382016
v 0.936702 0.053709 0.445958
v 0.936702 -0.043635 0.486153
v 0.774032 0.125309 0.001469
v 1.000000 0.257497 0.097509
v 1.000000 0.243008 0.201646
v 1.000000 0.242301 0.203322
v 1.000000 0.202086 0.298686
v 1.000000 0.137519 0.382016
v 1.000000 0.053709 0.445958
v 1.000000 -1.000000 0.499863
v 1.000000 0.258228 0.000000
v 1.000000 1.972923 0.000000
v 1.000000 1.472323 0.499863
v 1.000000 0.656854 0.499863
v 1.000000 0.373278 0.673745
v -3.766080 -1.000000 1.000000
v -4.092412 1.000000 1.000000
v -4.709043 0.996125 0.480272
v -4.709043 0.993714 0.000000
v -4.709043 -1.000000 0.000000
v -4.709043 -1.000000 0.480272
v -4.092412 -1.000000 1.000000
v 0.773184 -0.998243 0.000000
v 1.059833 1.000000 1.000000
v 1.059833 0.963264 1.000000
v 1.059833 1.472323 0.499863
v 1.059833 1.508976 0.499863
v 1.059833 1.972923 0.000000
v 1.059833 2.017952 0.000000
v -4.547497 -0.595963 0.546089
v -4.584351 -0.595963 0.585368
v -4.217104 -0.595963 0.894904
v -4.180250 -0.595963 0.855624
v -4.363424 0.594260 0.771576
v -4.307430 0.580046 0.818771
v -4.162429 0.772684 0.940986
v -4.259960 0.538861 0.858782
v -4.228242 0.476977 0.885516
v -4.217104 0.403815 0.894904
v -4.584351 0.401507 0.585368
v -4.573213 0.474809 0.594756
v -4.639207 0.770280 0.539132
v -4.541495 0.537092 0.621490
v -4.494023 0.578873 0.661500
v -4.438029 0.593792 0.708696
v -4.457170 0.578873 0.622221
v -4.401175 0.593792 0.669416
v -4.504641 0.537092 0.582210
v -4.536359 0.474809 0.555476
v -4.547497 0.401507 0.546089
v -4.326571 0.594260 0.732297
v -4.270576 0.580046 0.779492
v -4.223106 0.538861 0.819502
v -4.191388 0.476977 0.846236
v -4.180250 0.403815 0.855624
v -2.209750 -0.583935 1.739505
v -2.209750 -0.583935 1.798310
v -1.731640 -0.583935 1.798310
v -1.731640 -0.583935 1.739505
v -1.921680 0.994779 1.798310
v -1.848955 0.980313 1.798310
v -1.541604 0.996135 1.798310
v -1.787301 0.939117 1.798310
v -1.746105 0.877464 1.798310
v -1.731640 0.804738 1.798310
v -2.209750 0.804738 1.798310
v -2.195284 0.877464 1.798310
v -2.399786 0.996135 1.798310
v -2.154089 0.939117 1.798310
v -2.092435 0.980313 1.798310
v -2.019709 0.994779 1.798310
v -2.092435 0.980313 1.739505
v -2.019709 0.994779 1.739505
v -2.154089 0.939117 1.739505
v -2.195284 0.877464 1.739505
v -2.209750 0.804738 1.739505
v -1.746105 0.877464 1.739505
v -1.731640 0.804738 1.739505
v -1.787301 0.939117 1.739505
v -1.848955 0.980313 1.739505
v -1.921680 0.994779 1.739505
v 1.000000 1.508976 -0.499863
v 1.000000 1.000000 -1.000000
v -1.000000 1.000000 -1.000000
v 1.000000 1.000000 -1.140309
v -0.862134 1.000000 -1.140309
v -0.208153 -0.582948 1.140309
v 0.346019 -0.582948 1.140309
v 1.033229 1.594962 -1.044966
v 1.033229 1.594962 -1.095343
v -2.944733 1.000000 -1.000000
v -1.972366 2.016270 -1.000000
v -1.969211 2.016270 -1.798310
v -2.941577 1.000000 -1.798310
v 1.103687 1.000000 -1.070155
v 1.064585 0.886485 -1.070155
v 1.064585 0.886485 -1.140309
v 1.103687 1.000000 -1.140309
v 1.000000 -1.000000 -1.000000
v 1.103687 -1.000000 -1.000000
v 1.064585 -0.872361 -1.000000
v 1.064585 0.886485 -1.000000
v 1.103687 1.000000 -1.000000
v 1.000000 0.963264 -1.000000
v 1.000000 0.000000 -1.000000
v 1.064585 -0.873167 -1.140309
v 1.103687 -1.000000 -1.140309
v 1.070457 1.594962 -1.044966
v 1.070457 1.594962 -1.095343
v 1.064585 -0.872764 -1.070155
v 1.103687 -1.000000 -1.070155
v -3.766080 1.000000 -1.000000
v -1.000142 1.000000 -1.798310
v -3.077533 1.000000 -1.798913
v -2.984607 1.599061 -1.831481
v -3.034422 1.599061 -1.831702
v -0.858978 1.000000 -1.798590
v -0.858978 -1.000000 -1.798590
v -2.941577 -1.000000 -1.798310
v -2.941450 -1.000000 -1.902415
v -2.941450 1.000000 -1.902415
v -3.080689 -1.000000 -1.000602
v -3.080689 1.000000 -1.000602
v -3.077533 -1.000000 -1.798913
v -2.944733 -1.000000 -1.000000
v -1.000015 -1.000000 -1.902415
v -1.000015 1.000000 -1.902415
v -0.858850 1.000000 -1.902694
v -0.858850 -1.000000 -1.902694
v -3.077405 -1.000000 -1.903017
v -3.077405 1.000000 -1.903017
v -0.903915 1.599061 -1.869401
v -0.903962 1.599061 -1.831705
v -1.000142 -1.000000 -1.798310
v -2.984560 1.599061 -1.869626
v -3.034376 1.599061 -1.869846
v -0.955077 1.599061 -1.831604
v -0.955031 1.599061 -1.869300
v 0.715100 -0.998628 -0.342211
v 0.715100 -0.120520 -0.342211
v 0.774032 -0.120520 -0.342211
v 0.774032 -0.999168 -0.342211
v 0.715100 0.009443 -0.311743
v 0.715100 0.056810 -0.275603
v 0.774032 0.056810 -0.275603
v 0.774032 0.009443 -0.311743
v 0.715100 0.093299 -0.228504
v 0.715100 0.116423 -0.173656
v 0.774032 0.116423 -0.173656
v 0.774032 0.093299 -0.228504
v 0.715100 -0.045575 -0.334462
v 0.774032 -0.045575 -0.334462
v 0.715100 0.132034 -0.261019
v 0.715100 0.160915 -0.192517
v 0.715100 0.171136 -0.119005
v 0.715100 0.124606 -0.114796
v 0.715100 0.125309 -0.001469
v 0.715100 0.086461 -0.319844
v 0.715100 -0.041412 -0.393356
v 0.715100 0.027302 -0.364981
v 0.715100 -0.114997 -0.403034
v 0.936702 0.171136 -0.119005
v 0.936702 0.160915 -0.192517
v 0.936702 0.132034 -0.261019
v 0.936702 0.086461 -0.319844
v 0.936702 0.027302 -0.364981
v 0.936702 -0.041412 -0.393356
v 0.936702 -0.114997 -0.403034
v 0.936702 -0.999350 -0.403034
v 0.715100 -0.996532 -0.403034
v 1.000000 -0.147877 -0.499863
v 1.000000 0.072014 -0.858473
v 1.000000 -0.043635 -0.486153
v 0.774032 0.124606 -0.114796
v 0.936702 -1.000000 -0.499863
v 0.936702 -0.147877 -0.499863
v 0.936702 -0.043635 -0.486153
v 0.936702 0.053709 -0.445958
v 0.936702 0.137519 -0.382016
v 0.936702 0.202086 -0.298686
v 0.936702 0.243008 -0.201646
v 0.936702 0.257497 -0.097509
v 0.774032 0.125309 -0.001469
v 1.000000 0.257497 -0.097509
v 1.000000 0.243008 -0.201646
v 1.000000 0.202086 -0.298686
v 1.000000 0.242301 -0.203322
v 1.000000 0.137519 -0.382016
v 1.000000 0.053709 -0.445958
v 1.000000 -1.000000 -0.499863
v 1.000000 0.656854 -0.499863
v 1.000000 1.472323 -0.499863
v 1.000000 0.373278 -0.673745
v -3.766080 -1.000000 -1.000000
v -4.092412 1.000000 -1.000000
v -4.709043 0.996125 -0.480272
v -4.709043 -1.000000 -0.480272
v -4.092412 -1.000000 -1.000000
v 1.059833 1.472323 -0.499863
v 1.059833 0.963264 -1.000000
v 1.059833 1.000000 -1.000000
v 1.059833 1.508976 -0.499863
v -4.217104 -0.595963 -0.894904
v -4.584351 -0.595963 -0.585368
v -4.547497 -0.595963 -0.546089
v -4.180250 -0.595963 -0.855624
v -4.363424 0.594260 -0.771576
v -4.162429 0.772684 -0.940986
v -4.307430 0.580046 -0.818771
v -4.259960 0.538861 -0.858782
v -4.228242 0.476977 -0.885516
v -4.217104 0.403815 -0.894904
v -4.584351 0.401507 -0.585368
v -4.639207 0.770280 -0.539132
v -4.573213 0.474809 -0.594756
v -4.541495 0.537092 -0.621490
v -4.494023 0.578873 -0.661500
v -4.438029 0.593792 -0.708696
v -4.401175 0.593792 -0.669416
v -4.457170 0.578873 -0.622221
v -4.504641 0.537092 -0.582210
v -4.536359 0.474809 -0.555476
v -4.547497 0.401507 -0.546089
v -4.326571 0.594260 -0.732297
v -4.270576 0.580046 -0.779492
v -4.223106 0.538861 -0.819502
v -4.191388 0.476977 -0.846236
v -4.180250 0.403815 -0.855624
v -1.731640 -0.583935 -1.798310
v -2.209750 -0.583935 -1.798310
v -2.209750 -0.583935 -1.739505
v -1.731640 -0.583935 -1.739505
v -1.921680 0.994779 -1.798310
v -1.541604 0.996135 -1.798310
v -1.848955 0.980313 -1.798310
v -1.787301 0.939117 -1.798310
v -1.746105 0.877464 -1.798310
v -1.731640 0.804738 -1.798310
v -2.209750 0.804738 -1.798310
v -2.399786 0.996135 -1.798310
v -2.195284 0.877464 -1.798310
v -2.154089 0.939117 -1.798310
v -2.092435 0.980313 -1.798310
v -2.019709 0.994779 -1.798310
v -2.019709 0.994779 -1.739505
v -2.092435 0.980313 -1.739505
v -2.154089 0.939117 -1.739505
v -2.195284 0.877464 -1.739505
v -2.209750 0.804738 -1.739505
v -1.731640 0.804738 -1.739505
v -1.746105 0.877464 -1.739505
v -1.787301 0.939117 -1.739505
v -1.848955 0.980313 -1.739505
v -1.921680 0.994779 -1.739505
v -0.208153 -0.582948 1.086966
v 0.346019 -0.582948 1.086966
v 0.346019 -0.582948 -1.090998
v -0.208153 -0.582948 -1.090998
v -0.208153 0.348608 1.140309
v -0.190315 0.438286 1.140309
v -0.405736 0.708950 1.140309
v -0.139516 0.514312 1.140309
v -0.063490 0.565110 1.140309
v 0.026188 0.582949 1.140309
v 0.111678 0.582949 1.140309
v 0.201357 0.565110 1.140309
v 0.543602 0.708950 1.140309
v 0.277382 0.514312 1.140309
v 0.328181 0.438286 1.140309
v 0.346019 0.348608 1.140309
v 0.026188 0.582949 -1.140309
v -0.063490 0.565110 -1.140309
v -0.405736 0.708950 -1.140309
v -0.139516 0.514312 -1.140309
v -0.190315 0.438286 -1.140309
v -0.208153 0.348608 -1.140309
v 0.346019 0.348608 -1.140309
v 0.328181 0.438286 -1.140309
v 0.543602 0.708950 -1.140309
v 0.277382 0.514312 -1.140309
v 0.201357 0.565110 -1.140309
v 0.111678 0.582949 -1.140309
v 0.346019 0.348608 -1.090998
v 0.328181 0.438286 -1.090998
v 0.277382 0.514312 -1.090998
v 0.201357 0.565110 -1.090998
v 0.111678 0.582949 -1.090998
v -0.190315 0.438286 -1.090998
v -0.208153 0.348608 -1.090998
v -0.139516 0.514312 -1.090998
v -0.063490 0.565110 -1.090998
v 0.026188 0.582949 -1.090998
v 0.111678 0.582949 1.086966
v 0.201357 0.565110 1.086966
v 0.277382 0.514312 1.086966
v 0.328181 0.438286 1.086966
v 0.346019 0.348608 1.086966
v -0.208153 0.348608 1.086966
v -0.190315 0.438286 1.086966
v -0.139516 0.514312 1.086966
v -0.063490 0.565110 1.086966
v 0.026188 0.582949 1.086966

# UV coordinates
vt 0.928202 0.204057
vt 0.928202 0.195475
vt 0.979010 0.196871
vt 0.979011 0.205453
vt 0.928202 0.212638
vt 0.979010 0.214034
vt 0.928202 0.221219
vt 0.979010 0.222616
vt 0.928202 0.229801
vt 0.979010 0.231197
vt 0.630909 0.904405
vt 0.622280 0.904405
vt 0.623817 0.853878
vt 0.632447 0.853877
vt 0.639538 0.904405
vt 0.641076 0.853877
vt 0.648168 0.904405
vt 0.649705 0.853877
vt 0.656797 0.904405
vt 0.658334 0.853877
vt 0.665426 0.904405
vt 0.666963 0.853877
vt 0.674055 0.904405
vt 0.675592 0.853877
vt 0.682684 0.904405
vt 0.684221 0.853877
vt 0.691313 0.904405
vt 0.692850 0.853877
vt 0.928202 0.099010
vt 0.928202 0.090429
vt 0.979011 0.091825
vt 0.979011 0.100407
vt 0.928202 0.107592
vt 0.979011 0.108988
vt 0.928202 0.116173
vt 0.979011 0.117570
vt 0.928202 0.124755
vt 0.979011 0.126151
vt 0.928202 0.133336
vt 0.979011 0.134732
vt 0.928202 0.141917
vt 0.979011 0.143313
vt 0.928202 0.150499
vt 0.979011 0.151895
vt 0.928203 0.159080
vt 0.979011 0.160476
vt 0.928202 0.028219
vt 0.928202 0.019625
vt 0.978932 0.020442
vt 0.978932 0.029036
vt 0.928202 0.036814
vt 0.978932 0.037631
vt 0.928202 0.045409
vt 0.978932 0.046226
vt 0.928202 0.054003
vt 0.978932 0.054820
vt 0.928202 0.062598
vt 0.978932 0.063415
vt 0.928202 0.071193
vt 0.978932 0.072010
vt 0.928202 0.079787
vt 0.978932 0.080604
vt 0.928202 0.088382
vt 0.978932 0.089199
vt 0.928202 0.169731
vt 0.928202 0.161150
vt 0.979010 0.162546
vt 0.979010 0.171127
vt 0.928202 0.178313
vt 0.979010 0.179709
vt 0.951942 0.557486
vt 0.949554 0.562921
vt 0.943171 0.559242
vt 0.946542 0.554361
vt 0.928202 0.186894
vt 0.979010 0.188290
vt 0.423999 0.639191
vt 0.422848 0.681898
vt 0.415509 0.681898
vt 0.416661 0.639191
vt 0.992701 0.531643
vt 0.998366 0.532537
vt 0.996894 0.539960
vt 0.991464 0.537985
vt 0.961340 0.492323
vt 0.961546 0.486196
vt 0.967373 0.486886
vt 0.966220 0.492939
vt 0.935245 0.539599
vt 0.929849 0.541952
vt 0.927871 0.534811
vt 0.933571 0.533484
vt 0.927262 0.527393
vt 0.933084 0.527110
vt 0.981183 0.553767
vt 0.984662 0.558497
vt 0.978367 0.562538
vt 0.975936 0.557158
vt 0.981547 0.501932
vt 0.985503 0.497771
vt 0.990437 0.503635
vt 0.985803 0.506901
vt 0.938477 0.508613
vt 0.933588 0.505800
vt 0.938214 0.499518
vt 0.942357 0.503328
vt 0.957841 0.559420
vt 0.956572 0.565221
vt 0.992722 0.525131
vt 0.998429 0.524945
vt 0.956592 0.493200
vt 0.955800 0.487168
vt 0.938041 0.545243
vt 0.933145 0.548549
vt 0.985623 0.549286
vt 0.989955 0.553205
vt 0.976596 0.497838
vt 0.979735 0.492886
vt 0.935574 0.514474
vt 0.930145 0.512680
vt 0.963993 0.560037
vt 0.963951 0.565974
vt 0.991529 0.518695
vt 0.997066 0.517435
vt 0.951788 0.495417
vt 0.949837 0.489844
vt 0.941854 0.550218
vt 0.937637 0.554382
vt 0.989085 0.543940
vt 0.994065 0.546940
vt 0.971348 0.494827
vt 0.973503 0.489159
vt 0.933746 0.520706
vt 0.928038 0.519939
vt 0.970113 0.559262
vt 0.971347 0.565091
vt 0.989173 0.512550
vt 0.994357 0.510261
vt 0.946933 0.498858
vt 0.943785 0.494075
vt 0.949916 0.569909
vt 0.952037 0.575420
vt 0.947305 0.578804
vt 0.944104 0.574068
vt 0.346666 0.931054
vt 0.345956 0.973917
vt 0.338644 0.973917
vt 0.339354 0.931054
vt 0.971040 0.322846
vt 0.928092 0.323753
vt 0.928092 0.316456
vt 0.971039 0.315548
vt 0.353976 0.931054
vt 0.353268 0.973916
vt 0.971040 0.330144
vt 0.928093 0.331051
vt 0.796861 0.842238
vt 0.795955 0.799290
vt 0.803253 0.799290
vt 0.804158 0.842238
vt 0.361290 0.931054
vt 0.360579 0.973916
vt 0.971040 0.337442
vt 0.928093 0.338348
vt 0.789563 0.842238
vt 0.788657 0.799291
vt 0.826050 0.842239
vt 0.825146 0.799292
vt 0.832444 0.799292
vt 0.833347 0.842240
vt 0.971040 0.344740
vt 0.928093 0.345645
vt 0.782266 0.842238
vt 0.781359 0.799291
vt 0.818752 0.842239
vt 0.817848 0.799291
vt 0.971040 0.352037
vt 0.928093 0.352942
vt 0.774969 0.842239
vt 0.774061 0.799291
vt 0.811455 0.842238
vt 0.810550 0.799291
vt 0.971039 0.359335
vt 0.928092 0.360239
vt 0.372629 0.639191
vt 0.371478 0.681898
vt 0.364140 0.681898
vt 0.365291 0.639191
vt 0.971039 0.366633
vt 0.928091 0.367537
vt 0.379968 0.639191
vt 0.378817 0.681898
vt 0.971038 0.373931
vt 0.928091 0.374834
vt 0.387307 0.639191
vt 0.386155 0.681898
vt 0.310105 0.931054
vt 0.309397 0.973916
vt 0.302083 0.973917
vt 0.302794 0.931055
vt 0.394645 0.639191
vt 0.393494 0.681898
vt 0.317417 0.931054
vt 0.316707 0.973916
vt 0.401983 0.639191
vt 0.400832 0.681898
vt 0.324729 0.931054
vt 0.324019 0.973916
vt 0.409322 0.639191
vt 0.408171 0.681898
vt 0.332042 0.931054
vt 0.331331 0.973917
vt 0.112995 0.878086
vt 0.026201 0.861852
vt 0.028938 0.853234
vt 0.113124 0.877677
vt 0.958447 0.648117
vt 0.959771 0.642577
vt 0.965926 0.643583
vt 0.965800 0.649273
vt 0.992114 0.637532
vt 0.987698 0.633940
vt 0.990896 0.628653
vt 0.995990 0.631133
vt 0.955835 0.567808
vt 0.956948 0.573695
vt 0.951521 0.645383
vt 0.953934 0.640273
vt 0.986804 0.642812
vt 0.983316 0.638239
vt 0.961631 0.567979
vt 0.961816 0.573853
vt 0.945313 0.641263
vt 0.948670 0.636748
vt 0.980367 0.646602
vt 0.978042 0.641396
vt 0.967543 0.569835
vt 0.966741 0.575512
vt 0.940040 0.635989
vt 0.944170 0.632218
vt 0.973234 0.648769
vt 0.972128 0.643212
vt 0.973892 0.573170
vt 0.971865 0.578234
vt 0.935844 0.629850
vt 0.940555 0.626871
vt 0.980230 0.577627
vt 0.977071 0.581936
vt 0.932763 0.623097
vt 0.937903 0.620916
vt 0.985899 0.582952
vt 0.981848 0.586479
vt 0.930830 0.615911
vt 0.936159 0.614593
vt 0.990562 0.588968
vt 0.985856 0.591728
vt 0.929944 0.608517
vt 0.935458 0.608027
vt 0.994183 0.595469
vt 0.988996 0.597512
vt 0.930276 0.601003
vt 0.935723 0.601435
vt 0.996742 0.602319
vt 0.991377 0.603636
vt 0.931841 0.593561
vt 0.937073 0.594969
vt 0.998442 0.609415
vt 0.992827 0.609982
vt 0.934733 0.586404
vt 0.939529 0.588847
vt 0.999000 0.616706
vt 0.993390 0.616397
vt 0.938905 0.579804
vt 0.943027 0.583332
vt 0.998265 0.624048
vt 0.992787 0.622702
vt 0.052909 0.057139
vt 0.052838 0.057498
vt 0.052698 0.057835
vt 0.052495 0.058139
vt 0.052237 0.058397
vt 0.051933 0.058600
vt 0.051596 0.058740
vt 0.051237 0.058811
vt 0.050872 0.058811
vt 0.050514 0.058740
vt 0.050176 0.058600
vt 0.049873 0.058397
vt 0.049614 0.058139
vt 0.049411 0.057835
vt 0.049272 0.057498
vt 0.049200 0.057139
vt 0.049200 0.056774
vt 0.049272 0.056416
vt 0.049411 0.056078
vt 0.049614 0.055775
vt 0.049873 0.055516
vt 0.050176 0.055313
vt 0.050514 0.055174
vt 0.050872 0.055102
vt 0.051237 0.055102
vt 0.051596 0.055174
vt 0.051933 0.055313
vt 0.052237 0.055516
vt 0.052495 0.055775
vt 0.052698 0.056078
vt 0.052838 0.056416
vt 0.052909 0.056774
vt 0.691159 0.978723
vt 0.622561 0.921506
vt 0.627289 0.914271
vt 0.691389 0.978372
vt 0.990241 0.322053
vt 0.957666 0.240898
vt 0.966202 0.237715
vt 0.990644 0.321902
vt 0.112887 0.878497
vt 0.023933 0.870449
vt 0.690944 0.979089
vt 0.618085 0.929187
vt 0.112802 0.878908
vt 0.022159 0.878908
vt 0.690746 0.979468
vt 0.613927 0.937215
vt 0.700761 0.992656
vt 0.789706 0.984607
vt 0.791477 0.993068
vt 0.700846 0.993068
vt 0.690567 0.979859
vt 0.610143 0.945500
vt 0.700653 0.992245
vt 0.787442 0.976009
vt 0.690407 0.980259
vt 0.606773 0.953963
vt 0.700525 0.991837
vt 0.784708 0.967390
vt 0.690270 0.980664
vt 0.603847 0.962518
vt 0.700376 0.991433
vt 0.781528 0.958854
vt 0.690154 0.981072
vt 0.601391 0.971062
vt 0.700206 0.991038
vt 0.777930 0.950485
vt 0.690059 0.981481
vt 0.599433 0.979480
vt 0.700018 0.990653
vt 0.773952 0.942365
vt 0.113840 0.876122
vt 0.044008 0.820434
vt 0.048575 0.813097
vt 0.114063 0.875766
vt 0.699811 0.990282
vt 0.769650 0.934586
vt 0.113634 0.876494
vt 0.039703 0.828213
vt 0.989846 0.322222
vt 0.949299 0.244500
vt 0.699589 0.989926
vt 0.765085 0.927246
vt 0.113445 0.876878
vt 0.035722 0.836332
vt 0.989461 0.322411
vt 0.941181 0.248481
vt 0.991464 0.321665
vt 0.983416 0.232710
vt 0.991875 0.230937
vt 0.991875 0.321579
vt 0.113275 0.877274
vt 0.032120 0.844699
vt 0.989090 0.322618
vt 0.933402 0.252786
vt 0.991053 0.321772
vt 0.974820 0.234978
vt 0.988734 0.322840
vt 0.926064 0.257353
vt 0.355664 0.304074
vt 0.297308 0.251249
vt 0.440359 0.106197
vt 0.547618 0.199503
vt 0.414382 0.350690
vt 0.208397 0.882668
vt 0.209534 0.897104
vt 0.007483 0.897104
vt 0.020274 0.882668
vt 0.439810 0.635881
vt 0.484310 0.573144
vt 0.484900 0.754008
vt 0.439957 0.689548
vt 0.203125 0.097650
vt 0.240590 0.053370
vt 0.251221 0.064002
vt 0.206942 0.101467
vt 0.882688 0.379655
vt 0.794784 0.380441
vt 0.795078 0.247645
vt 0.882962 0.246897
vt 0.199891 0.015769
vt 0.199546 0.008387
vt 0.211728 0.008252
vt 0.211806 0.015516
vt 0.447711 0.453878
vt 0.410414 0.361825
vt 0.416799 0.359606
vt 0.419127 0.367275
vt 0.487615 0.533764
vt 0.496301 0.543762
vt 0.486690 0.548497
vt 0.912865 0.918485
vt 0.913115 0.928905
vt 0.899779 0.924769
vt 0.716180 0.921658
vt 0.704652 0.925401
vt 0.704174 0.914961
vt 0.051168 0.024655
vt 0.051168 0.020674
vt 0.056063 0.020674
vt 0.056063 0.024655
vt 0.642436 0.921949
vt 0.642685 0.925639
vt 0.272786 0.010434
vt 0.211639 0.001000
vt 0.272757 0.005228
vt 0.478288 0.352038
vt 0.478983 0.348180
vt 0.014223 0.014546
vt 0.012545 0.007373
vt 0.023661 0.009025
vt 0.024113 0.016403
vt 0.009846 0.001000
vt 0.023135 0.001725
vt 0.199192 0.001016
vt 0.644567 0.527201
vt 0.563486 0.530648
vt 0.561532 0.381563
vt 0.681473 0.381635
vt 0.882574 0.512203
vt 0.794681 0.513232
vt 0.684681 0.381679
vt 0.011153 0.384208
vt 0.069337 0.379585
vt 0.069337 0.394157
vt 0.011153 0.389547
vt 0.507588 0.037809
vt 0.462690 0.380711
vt 0.015259 0.814940
vt 0.001000 0.814969
vt 0.883558 0.724795
vt 0.815023 0.729982
vt 0.815044 0.530111
vt 0.883600 0.524953
vt 0.909517 0.464260
vt 0.898751 0.463553
vt 0.898751 0.262541
vt 0.909517 0.263248
vt 0.218925 0.900164
vt 0.218975 0.814703
vt 0.413970 0.807971
vt 0.413657 0.893312
vt 0.078363 0.111836
vt 0.078358 0.126420
vt 0.001000 0.126420
vt 0.001005 0.111836
vt 0.550153 0.531928
vt 0.588837 0.741287
vt 0.575516 0.742567
vt 0.926187 0.195623
vt 0.911109 0.195731
vt 0.911109 0.001108
vt 0.926187 0.001000
vt 0.896408 0.474792
vt 0.910806 0.474259
vt 0.910807 0.670552
vt 0.896408 0.671085
vt 0.892907 0.465316
vt 0.894393 0.524117
vt 0.889059 0.465633
vt 0.179672 0.929040
vt 0.179637 0.917884
vt 0.373628 0.917884
vt 0.373662 0.929040
vt 0.219008 0.911337
vt 0.413597 0.904445
vt 0.894393 0.723970
vt 0.022641 0.046363
vt 0.022646 0.042315
vt 0.027524 0.042315
vt 0.027519 0.046363
vt 0.012810 0.041428
vt 0.012804 0.037396
vt 0.017772 0.037396
vt 0.017778 0.041428
vt 0.900976 0.729800
vt 0.906251 0.729606
vt 0.167413 0.912450
vt 0.167646 0.916481
vt 0.004875 0.060920
vt 0.049415 0.098643
vt 0.038713 0.109344
vt 0.001000 0.064795
vt 0.906120 0.202660
vt 0.902175 0.202401
vt 0.121379 0.921456
vt 0.121391 0.925495
vt 0.915908 0.254082
vt 0.921367 0.254042
vt 0.064421 0.219512
vt 0.070597 0.219737
vt 0.070527 0.308653
vt 0.064370 0.308542
vt 0.064386 0.201662
vt 0.070600 0.202768
vt 0.070614 0.207548
vt 0.064370 0.206545
vt 0.429530 0.829277
vt 0.429967 0.835618
vt 0.424253 0.835608
vt 0.423794 0.829270
vt 0.070633 0.212652
vt 0.064371 0.211954
vt 0.531496 0.258275
vt 0.535166 0.262198
vt 0.531530 0.267234
vt 0.528031 0.262952
vt 0.534034 0.253815
vt 0.537876 0.257144
vt 0.537419 0.245670
vt 0.541339 0.248733
vt 0.527438 0.272406
vt 0.523992 0.267887
vt 0.519628 0.272924
vt 0.523116 0.277669
vt 0.518544 0.282901
vt 0.515041 0.277865
vt 0.513380 0.287923
vt 0.508875 0.283477
vt 0.257662 0.592279
vt 0.257662 0.599181
vt 0.232895 0.600104
vt 0.232895 0.593202
vt 0.257662 0.585365
vt 0.232895 0.586288
vt 0.257662 0.578445
vt 0.232895 0.579368
vt 0.207041 0.577785
vt 0.207040 0.570593
vt 0.230877 0.569605
vt 0.230878 0.576797
vt 0.207042 0.584969
vt 0.230879 0.583982
vt 0.207042 0.592141
vt 0.230880 0.591154
vt 0.230879 0.676600
vt 0.207040 0.677315
vt 0.257662 0.610249
vt 0.232895 0.611172
vt 0.073919 0.314814
vt 0.083204 0.312237
vt 0.096590 0.352852
vt 0.418553 0.835605
vt 0.418080 0.829258
vt 0.435307 0.829288
vt 0.435705 0.835610
vt 0.444558 0.347424
vt 0.440267 0.342822
vt 0.078603 0.060969
vt 0.001000 0.022669
vt 0.004708 0.013489
vt 0.085366 0.053304
vt 0.092769 0.056529
vt 0.100597 0.058768
vt 0.108636 0.060108
vt 0.133117 0.059183
vt 0.146141 0.058068
vt 0.146141 0.067160
vt 0.136782 0.067583
vt 0.126951 0.068532
vt 0.117105 0.068653
vt 0.107266 0.068285
vt 0.097521 0.066915
vt 0.087935 0.064570
vt 0.116764 0.060697
vt 0.124954 0.060255
vt 0.446362 0.829258
vt 0.446744 0.835577
vt 0.119276 0.083396
vt 0.129131 0.083588
vt 0.129123 0.090470
vt 0.119099 0.090385
vt 0.110017 0.082650
vt 0.118926 0.090393
vt 0.109687 0.089693
vt 0.101169 0.081471
vt 0.100781 0.088511
vt 0.091727 0.376049
vt 0.097714 0.370638
vt 0.101456 0.376464
vt 0.095612 0.381806
vt 0.085015 0.382399
vt 0.089242 0.387871
vt 0.077595 0.389879
vt 0.082204 0.394776
vt 0.005767 0.382746
vt 0.001000 0.327132
vt 0.090632 0.368844
vt 0.110957 0.266924
vt 0.110958 0.256047
vt 0.279514 0.256047
vt 0.230321 0.310469
vt 0.150562 0.310780
vt 0.021260 0.456659
vt 0.016610 0.451852
vt 0.123972 0.330933
vt 0.180219 0.364936
vt 0.138683 0.083409
vt 0.138814 0.090158
vt 0.669455 0.733971
vt 0.676285 0.526092
vt 0.750484 0.500637
vt 0.510460 0.851864
vt 0.400070 0.798223
vt 0.510673 0.798223
vt 0.696221 0.798223
vt 0.696222 0.851862
vt 0.701964 0.730221
vt 0.940503 0.376962
vt 0.946868 0.377483
vt 0.952798 0.379458
vt 0.957891 0.382753
vt 0.961799 0.387144
vt 0.964255 0.392330
vt 0.965093 0.399499
vt 0.965093 0.483963
vt 0.928091 0.485418
vt 0.928250 0.377405
vt 0.092128 0.307040
vt 0.099836 0.299343
vt 0.105872 0.289692
vt 0.109592 0.278818
vt 0.109659 0.278628
vt 0.540468 0.146635
vt 0.537728 0.149402
vt 0.540889 0.076552
vt 0.543627 0.073796
vt 0.008782 0.037294
vt 0.002967 0.037294
vt 0.002967 0.032478
vt 0.008782 0.032478
vt 0.404900 0.362619
vt 0.421062 0.432405
vt 0.415084 0.433061
vt 0.543602 0.004372
vt 0.546974 0.001000
vt 0.425647 0.502842
vt 0.419670 0.503070
vt 0.352610 0.309925
vt 0.408544 0.354671
vt 0.293233 0.256427
vt 0.716352 0.025460
vt 0.716135 0.019690
vt 0.762668 0.019690
vt 0.762885 0.025460
vt 0.760891 0.679326
vt 0.783199 0.720923
vt 0.712730 0.686583
vt 0.716427 0.557318
vt 0.709720 0.561456
vt 0.688215 0.547383
vt 0.704093 0.568222
vt 0.700615 0.576199
vt 0.700034 0.584246
vt 0.744940 0.569395
vt 0.742639 0.561860
vt 0.745710 0.527546
vt 0.738256 0.555958
vt 0.732258 0.553253
vt 0.725427 0.554073
vt 0.417469 0.774221
vt 0.410124 0.774410
vt 0.410107 0.768622
vt 0.417472 0.768460
vt 0.424909 0.774019
vt 0.424920 0.768270
vt 0.196375 0.038382
vt 0.202509 0.039205
vt 0.203823 0.044359
vt 0.197334 0.043719
vt 0.189489 0.037962
vt 0.189703 0.043512
vt 0.393574 0.768549
vt 0.400660 0.768669
vt 0.400691 0.774470
vt 0.393619 0.774356
vt 0.386602 0.768270
vt 0.386652 0.774078
vt 0.124926 0.377961
vt 0.119618 0.373766
vt 0.124061 0.370225
vt 0.129349 0.374347
vt 0.130217 0.382864
vt 0.134494 0.379107
vt 0.204114 0.450239
vt 0.199860 0.454008
vt 0.087014 0.044359
vt 0.086850 0.038799
vt 0.898825 0.927112
vt 0.899640 0.980012
vt 0.805289 0.980012
vt 0.798360 0.978408
vt 0.792450 0.973839
vt 0.788458 0.967001
vt 0.786992 0.958935
vt 0.786870 0.948189
vt 0.788154 0.940123
vt 0.791991 0.933285
vt 0.797799 0.928717
vt 0.804692 0.927112
vt 0.664984 0.025992
vt 0.664984 0.019690
vt 0.711352 0.019690
vt 0.711352 0.025992
vt 0.340333 0.511341
vt 0.422023 0.552350
vt 0.218486 0.552752
vt 0.290242 0.511376
vt 0.292087 0.354620
vt 0.284600 0.356024
vt 0.251988 0.354505
vt 0.278581 0.360030
vt 0.274846 0.366118
vt 0.274067 0.373439
vt 0.324540 0.373866
vt 0.322268 0.366471
vt 0.342408 0.354761
vt 0.317272 0.360236
vt 0.310265 0.356141
vt 0.302414 0.354678
vt 0.813231 0.009903
vt 0.820467 0.009941
vt 0.820172 0.016343
vt 0.812954 0.016285
vt 0.805905 0.009853
vt 0.805650 0.016215
vt 0.528849 0.240834
vt 0.531401 0.236631
vt 0.536615 0.240628
vt 0.533920 0.244909
vt 0.524705 0.245518
vt 0.529131 0.249830
vt 0.315843 0.011232
vt 0.310849 0.015411
vt 0.306461 0.011096
vt 0.311394 0.006559
vt 0.320307 0.009048
vt 0.315918 0.004468
vt 0.836784 0.009896
vt 0.843605 0.009853
vt 0.843208 0.016297
vt 0.836407 0.016328
vt 0.829854 0.009931
vt 0.829502 0.016364
vt 0.212523 0.116832
vt 0.208127 0.112562
vt 0.194978 0.353905
vt 0.284385 0.254899
vt 0.399483 0.354057
vt 0.428686 0.348041
vt 0.424329 0.343704
vt 0.915130 0.954374
vt 0.915130 0.822676
vt 0.916715 0.815769
vt 0.921230 0.809892
vt 0.927987 0.805941
vt 0.935958 0.804517
vt 0.946702 0.804447
vt 0.954673 0.805767
vt 0.961430 0.809630
vt 0.965945 0.815448
vt 0.967531 0.822335
vt 0.967531 0.954033
vt 0.243077 0.194369
vt 0.195307 0.136205
vt 0.345097 0.001000
vt 0.552131 0.001000
vt 0.754182 0.001000
vt 0.753044 0.015436
vt 0.564922 0.015436
vt 0.869564 0.797310
vt 0.913268 0.731793
vt 0.869480 0.852666
vt 0.194150 0.365957
vt 0.194150 0.380992
vt 0.136348 0.376173
vt 0.136348 0.370775
vt 0.267827 0.770257
vt 0.135031 0.770551
vt 0.135818 0.682647
vt 0.268576 0.682373
vt 0.505633 0.660374
vt 0.505726 0.648213
vt 0.513146 0.648511
vt 0.512929 0.660421
vt 0.001000 0.056182
vt 0.006971 0.047197
vt 0.016143 0.056198
vt 0.178531 0.131185
vt 0.187579 0.132446
vt 0.183051 0.139455
vt 0.093324 0.098872
vt 0.270734 0.567332
vt 0.272006 0.557327
vt 0.282882 0.561382
vt 0.470731 0.566488
vt 0.484273 0.563064
vt 0.045243 0.055149
vt 0.040347 0.055149
vt 0.040347 0.051168
vt 0.045243 0.051168
vt 0.207290 0.559141
vt 0.207913 0.555607
vt 0.508313 0.721395
vt 0.503092 0.721394
vt 0.498345 0.660312
vt 0.201286 0.070095
vt 0.204801 0.069829
vt 0.506621 0.473060
vt 0.504679 0.462569
vt 0.511953 0.464209
vt 0.514053 0.473464
vt 0.499276 0.472562
vt 0.498315 0.459609
vt 0.498315 0.647905
vt 0.559997 0.233485
vt 0.642262 0.237980
vt 0.002240 0.770654
vt 0.003270 0.682761
vt 0.133793 0.880654
vt 0.196496 0.417551
vt 0.186192 0.427855
vt 0.148319 0.383444
vt 0.152094 0.379668
vt 0.559904 0.083164
vt 0.545645 0.083136
vt 0.420352 0.851640
vt 0.615844 0.856609
vt 0.609548 0.926754
vt 0.414316 0.921937
vt 0.914099 0.710310
vt 0.914099 0.516197
vt 0.925248 0.516174
vt 0.925248 0.710286
vt 0.882509 0.022500
vt 0.869185 0.219587
vt 0.784666 0.219624
vt 0.798072 0.022705
vt 0.087240 0.206435
vt 0.087240 0.283793
vt 0.072657 0.283798
vt 0.072657 0.206440
vt 0.582616 0.027555
vt 0.546282 0.231999
vt 0.568916 0.026079
vt 0.518200 0.739184
vt 0.518200 0.542745
vt 0.533139 0.542165
vt 0.533139 0.738604
vt 0.911532 0.455913
vt 0.911532 0.261590
vt 0.926076 0.261485
vt 0.926076 0.455809
vt 0.413344 0.933025
vt 0.363225 0.937843
vt 0.363470 0.933934
vt 0.894874 0.027140
vt 0.894874 0.231765
vt 0.884297 0.232484
vt 0.884297 0.027860
vt 0.773694 0.219718
vt 0.787069 0.022757
vt 0.608529 0.937843
vt 0.031494 0.046249
vt 0.036372 0.046249
vt 0.036378 0.050298
vt 0.031499 0.050298
vt 0.041337 0.020674
vt 0.046305 0.020674
vt 0.046298 0.024705
vt 0.041331 0.024705
vt 0.921460 0.514136
vt 0.916131 0.514174
vt 0.770086 0.273528
vt 0.766181 0.273575
vt 0.184084 0.090061
vt 0.184084 0.105195
vt 0.125915 0.100375
vt 0.125915 0.094895
vt 0.921729 0.768587
vt 0.917644 0.768595
vt 0.891482 0.293460
vt 0.887653 0.293720
vt 0.522959 0.483631
vt 0.528368 0.483421
vt 0.108625 0.498156
vt 0.110337 0.588445
vt 0.104231 0.588641
vt 0.102523 0.498273
vt 0.109496 0.600823
vt 0.108551 0.605442
vt 0.102523 0.606615
vt 0.103398 0.601804
vt 0.833988 0.235128
vt 0.839724 0.235135
vt 0.840161 0.241476
vt 0.834447 0.241466
vt 0.110176 0.595733
vt 0.103989 0.596310
vt 0.114407 0.504202
vt 0.115398 0.498070
vt 0.120767 0.497892
vt 0.119910 0.503649
vt 0.117055 0.492581
vt 0.122126 0.492943
vt 0.120554 0.484184
vt 0.125492 0.484790
vt 0.113644 0.510753
vt 0.119276 0.509995
vt 0.112512 0.524463
vt 0.112979 0.517531
vt 0.118801 0.516642
vt 0.118550 0.523379
vt 0.112612 0.531665
vt 0.118942 0.531708
vt 0.232895 0.622240
vt 0.257662 0.621317
vt 0.257662 0.628219
vt 0.232895 0.629142
vt 0.257662 0.635133
vt 0.232895 0.636056
vt 0.257662 0.642053
vt 0.232895 0.642976
vt 0.535154 0.627054
vt 0.559286 0.626524
vt 0.559304 0.633650
vt 0.535172 0.634172
vt 0.559324 0.640771
vt 0.535179 0.641267
vt 0.559330 0.647871
vt 0.535184 0.648337
vt 0.535154 0.732648
vt 0.559301 0.731933
vt 0.073919 0.197280
vt 0.096590 0.159242
vt 0.083204 0.199856
vt 0.828274 0.235116
vt 0.828747 0.241463
vt 0.845502 0.235145
vt 0.845899 0.241468
vt 0.119203 0.622404
vt 0.125492 0.622184
vt 0.287572 0.013489
vt 0.291278 0.022669
vt 0.213678 0.060970
vt 0.204346 0.064571
vt 0.194760 0.066916
vt 0.185016 0.068286
vt 0.175177 0.068654
vt 0.165331 0.068532
vt 0.155500 0.067583
vt 0.159165 0.059184
vt 0.167328 0.060255
vt 0.175518 0.060697
vt 0.206916 0.053304
vt 0.183646 0.060109
vt 0.191685 0.058769
vt 0.199513 0.056530
vt 0.856556 0.235116
vt 0.856939 0.241435
vt 0.148718 0.089681
vt 0.148494 0.083028
vt 0.159226 0.082518
vt 0.159497 0.089122
vt 0.170050 0.081997
vt 0.170355 0.088564
vt 0.159684 0.089111
vt 0.180930 0.081471
vt 0.181237 0.088033
vt 0.300181 0.368089
vt 0.306947 0.369562
vt 0.306592 0.377471
vt 0.299775 0.376148
vt 0.306376 0.386265
vt 0.299518 0.385385
vt 0.306282 0.396124
vt 0.299560 0.395920
vt 0.001000 0.184962
vt 0.005767 0.129348
vt 0.090632 0.143249
vt 0.110957 0.245170
vt 0.150562 0.201313
vt 0.230321 0.201625
vt 0.300259 0.482864
vt 0.306947 0.482976
vt 0.123972 0.181161
vt 0.180219 0.147158
vt 0.666152 0.036796
vt 0.674813 0.239784
vt 0.751451 0.266152
vt 0.510460 0.744581
vt 0.696222 0.744583
vt 0.699281 0.041109
vt 0.795430 0.620363
vt 0.789501 0.622344
vt 0.783137 0.622871
vt 0.770886 0.622438
vt 0.770727 0.514403
vt 0.807722 0.515826
vt 0.807722 0.600307
vt 0.806884 0.607478
vt 0.804428 0.612668
vt 0.800521 0.617063
vt 0.092128 0.205054
vt 0.099836 0.212751
vt 0.109592 0.233276
vt 0.105872 0.222402
vt 0.109659 0.233466
vt 0.471422 0.007085
vt 0.398572 0.010246
vt 0.401338 0.007506
vt 0.474178 0.004347
vt 0.116625 0.118783
vt 0.182233 0.145144
vt 0.115010 0.124416
vt 0.053967 0.092444
vt 0.052122 0.097915
vt 0.238523 0.198161
vt 0.190972 0.141125
vt 0.292354 0.255433
vt 0.697662 0.030510
vt 0.744197 0.030510
vt 0.743979 0.036281
vt 0.697445 0.036281
vt 0.782849 0.053226
vt 0.760445 0.093020
vt 0.710812 0.083848
vt 0.714910 0.210078
vt 0.686720 0.219227
vt 0.708270 0.205691
vt 0.702804 0.198851
vt 0.699262 0.191137
vt 0.698622 0.183358
vt 0.744982 0.199695
vt 0.745198 0.240299
vt 0.743234 0.206424
vt 0.737793 0.212540
vt 0.730996 0.214797
vt 0.724084 0.213583
vt 0.800789 0.234484
vt 0.800772 0.240272
vt 0.793427 0.240083
vt 0.793424 0.234322
vt 0.785987 0.239881
vt 0.785976 0.234132
vt 0.291921 0.370887
vt 0.297504 0.370178
vt 0.296552 0.376683
vt 0.290896 0.377315
vt 0.296246 0.383830
vt 0.290551 0.384214
vt 0.810205 0.240332
vt 0.810236 0.234531
vt 0.817322 0.234411
vt 0.817277 0.240218
vt 0.824294 0.234132
vt 0.824244 0.239940
vt 0.196623 0.073214
vt 0.195509 0.078627
vt 0.189096 0.079190
vt 0.189996 0.073692
vt 0.182154 0.079452
vt 0.182484 0.073885
vt 0.080178 0.078786
vt 0.080466 0.073214
vt 0.291817 0.483700
vt 0.297504 0.483346
vt 0.363673 0.806105
vt 0.269320 0.806105
vt 0.270135 0.753206
vt 0.364270 0.753206
vt 0.371163 0.754811
vt 0.376971 0.759379
vt 0.380809 0.766217
vt 0.382092 0.774283
vt 0.381971 0.785029
vt 0.380505 0.793094
vt 0.376513 0.799932
vt 0.370602 0.804501
vt 0.660201 0.025992
vt 0.613832 0.025992
vt 0.613832 0.019690
vt 0.660201 0.019690
vt 0.202583 0.680446
vt 0.006635 0.680739
vt 0.081714 0.637589
vt 0.130023 0.637061
vt 0.114006 0.475798
vt 0.152810 0.475577
vt 0.121834 0.477565
vt 0.127485 0.481465
vt 0.131598 0.487279
vt 0.133225 0.495019
vt 0.085427 0.495557
vt 0.066786 0.474660
vt 0.086931 0.488600
vt 0.091225 0.482803
vt 0.097573 0.479500
vt 0.104182 0.476167
vt 0.851462 0.230758
vt 0.851335 0.224338
vt 0.858522 0.224325
vt 0.858668 0.230711
vt 0.865807 0.224295
vt 0.865948 0.230667
vt 0.001000 0.384684
vt 0.007249 0.384857
vt 0.008507 0.390221
vt 0.002132 0.390087
vt 0.008774 0.396933
vt 0.002615 0.396852
vt 0.075342 0.030778
vt 0.075392 0.036929
vt 0.068669 0.036634
vt 0.068844 0.030224
vt 0.063970 0.034921
vt 0.064118 0.028635
vt 0.828397 0.230758
vt 0.828274 0.224295
vt 0.835079 0.224357
vt 0.835203 0.230817
vt 0.842001 0.224375
vt 0.842113 0.230818
vt 0.216649 0.028635
vt 0.216736 0.034761
vt 0.207065 0.475199
vt 0.111502 0.370036
vt 0.011474 0.475184
vt 0.001000 0.537207
vt 0.007142 0.537301
vt 0.928848 0.791178
vt 0.927262 0.784270
vt 0.927262 0.652572
vt 0.979663 0.652914
vt 0.979663 0.784612
vt 0.978078 0.791498
vt 0.973563 0.797316
vt 0.966805 0.801179
vt 0.958835 0.802499
vt 0.948091 0.802429
vt 0.940120 0.801005
vt 0.933363 0.797054
vt 0.102319 0.053938
vt 0.102319 0.048217
vt 0.156020 0.048217
vt 0.156020 0.053938
vt 0.444639 0.018089
vt 0.444639 0.012804
vt 0.498382 0.012804
vt 0.498382 0.018089
vt 0.772103 0.797221
vt 0.762674 0.799170
vt 0.734642 0.777764
vt 0.754991 0.804459
vt 0.750045 0.811935
vt 0.748389 0.820599
vt 0.749521 0.829022
vt 0.750869 0.836333
vt 0.735026 0.869495
vt 0.754568 0.843339
vt 0.762113 0.849627
vt 0.772207 0.851567
vt 0.315305 0.662359
vt 0.317119 0.671250
vt 0.301681 0.704509
vt 0.322419 0.678997
vt 0.330457 0.684384
vt 0.340029 0.686509
vt 0.340681 0.632867
vt 0.331179 0.633290
vt 0.301953 0.612390
vt 0.322858 0.637860
vt 0.317293 0.645256
vt 0.315253 0.653996
vt 0.429285 0.527459
vt 0.429827 0.519081
vt 0.435037 0.518953
vt 0.434611 0.527267
vt 0.427662 0.534102
vt 0.432839 0.533864
vt 0.420285 0.757989
vt 0.428625 0.757449
vt 0.428968 0.762845
vt 0.420582 0.763385
vt 0.411819 0.758297
vt 0.411996 0.763681
vt 0.100006 0.492919
vt 0.100401 0.501310
vt 0.095160 0.501161
vt 0.094624 0.492731
vt 0.098515 0.485671
vt 0.093199 0.485480
vt 0.394715 0.763255
vt 0.385619 0.762737
vt 0.385762 0.757449
vt 0.394799 0.757931
vt 0.403731 0.763620
vt 0.403699 0.758268
vt 0.767672 0.003062
vt 0.776586 0.003120
vt 0.776341 0.008907
vt 0.767431 0.008817
vt 0.758659 0.002967
vt 0.758433 0.008705
vt 0.528565 0.015042
vt 0.530020 0.007648
vt 0.535530 0.006795
vt 0.534162 0.014340
vt 0.528061 0.023449
vt 0.533663 0.023147
vt 0.437512 0.555292
vt 0.437162 0.546998
vt 0.442830 0.547136
vt 0.443363 0.555527
vt 0.438965 0.562240
vt 0.444729 0.562505
vt 0.793368 0.003099
vt 0.801823 0.002967
vt 0.801544 0.008816
vt 0.793092 0.008945
vt 0.784777 0.003152
vt 0.784528 0.008973
vt 0.439085 0.453359
vt 0.444729 0.453504
vt 0.703978 0.732235
vt 0.535530 0.117647
vt 0.529934 0.117920
vt 0.098420 0.594557
vt 0.093199 0.594403
vt 0.270512 0.748211
vt 0.427662 0.424319
vt 0.432848 0.424182
vt 0.023238 0.899119
vt 0.111277 0.899119
vt 0.111120 0.960068
vt 0.023081 0.960068
vt 0.014610 0.958106
vt 0.007440 0.952519
vt 0.002660 0.944157
vt 0.001000 0.934294
vt 0.001024 0.924892
vt 0.002736 0.915029
vt 0.007558 0.906668
vt 0.014758 0.901081
vt 0.062036 0.310607
vt 0.001000 0.311084
vt 0.001000 0.223170
vt 0.002965 0.214692
vt 0.008560 0.207473
vt 0.016933 0.202614
vt 0.026810 0.200853
vt 0.036226 0.200779
vt 0.046103 0.202385
vt 0.054476 0.207114
vt 0.060071 0.214245
vt 0.062036 0.222693

# vertex normals
vn 0.195097 0.000000 -0.980784
vn -0.000000 -0.000000 -1.000000
vn 0.382690 0.000000 -0.923877
vn 0.555577 0.000000 -0.831465
vn 0.707107 0.000000 -0.707107
vn 0.831465 0.000000 -0.555577
vn 0.923877 0.000000 -0.382690
vn 0.980784 0.000000 -0.195097
vn 1.000000 0.000000 0.000000
vn 0.980784 0.000000 0.195097
vn 0.923877 0.000000 0.382690
vn 0.831465 0.000000 0.555577
vn 0.707107 0.000000 0.707107
vn 0.555577 0.000000 0.831465
vn 0.382690 0.000000 0.923877
vn 0.195097 0.000000 0.980784
vn 0.000000 0.000000 1.000000
vn -0.195097 0.000000 0.980784
vn -0.382690 0.000000 0.923877
vn -0.555577 0.000000 0.831465
vn -0.707107 0.000000 0.707107
vn -0.831465 0.000000 0.555577
vn -0.923877 0.000000 0.382690
vn -0.980784 0.000000 0.195097
vn -1.000000 -0.000000 -0.000000
vn -0.980784 -0.000000 -0.195097
vn -0.923877 -0.000000 -0.382690
vn -0.831465 -0.000000 -0.555577
vn -0.707107 -0.000000 -0.707107
vn -0.555577 -0.000000 -0.831465
vn -0.382690 -0.000000 -0.923877
vn 0.000000 1.000000 0.000000
vn -0.195097 -0.000000 -0.980784
vn -0.000000 -1.000000 -0.000000
vn -0.359605 0.342404 0.868011
vn -0.183300 0.342400 0.921501
vn 0.781202 0.342401 -0.522001
vn 0.664369 0.342384 -0.664369
vn 0.000000 0.342385 -0.939560
vn -0.183300 0.342400 -0.921501
vn -0.522001 0.342401 0.781202
vn 0.868011 0.342404 -0.359605
vn -0.664369 0.342384 0.664369
vn 0.921500 0.342400 -0.183300
vn -0.781202 0.342401 0.522001
vn 0.939560 0.342385 0.000000
vn -0.868011 0.342404 0.359605
vn 0.921500 0.342400 0.183300
vn -0.921500 0.342400 0.183300
vn 0.868011 0.342404 0.359605
vn -0.939560 0.342385 0.000000
vn 0.781202 0.342401 0.522001
vn -0.921500 0.342400 -0.183300
vn 0.664369 0.342384 0.664369
vn -0.868011 0.342404 -0.359605
vn 0.522001 0.342401 0.781202
vn -0.781202 0.342401 -0.522001
vn 0.359605 0.342404 0.868011
vn 0.183300 0.342400 -0.921501
vn -0.664369 0.342384 -0.664369
vn 0.183300 0.342400 0.921501
vn 0.359605 0.342404 -0.868011
vn -0.522001 0.342401 -0.781202
vn 0.000000 0.342385 0.939560
vn 0.522001 0.342401 -0.781202
vn -0.359605 0.342404 -0.868011
vn 0.000000 0.700779 0.713379
vn -0.998442 0.055802 0.000000
vn -0.722532 0.691331 0.002900
vn 0.945476 -0.325692 0.000000
vn 0.000000 0.075397 0.997154
vn 0.998442 0.055802 0.000000
vn 0.000000 0.075397 -0.997154
vn 0.955740 0.294212 0.000800
vn 0.956018 0.293306 0.000800
vn 0.723121 0.690720 -0.001400
vn 0.722535 0.691333 0.001200
vn -0.004400 0.054999 -0.998477
vn -0.722535 0.691333 0.001200
vn 0.999988 0.000000 -0.004800
vn 0.999999 0.000000 -0.001200
vn -0.999992 0.000000 0.004000
vn -0.004400 -0.000000 -0.999990
vn -0.002000 0.000000 0.999998
vn 0.004400 0.000000 0.999990
vn 0.997190 0.074899 -0.001200
vn -0.999999 0.000000 0.001200
vn 0.004400 0.054999 0.998477
vn -0.997425 0.071702 0.001200
vn 0.002000 0.055298 -0.998468
vn 0.997425 0.071702 -0.001200
vn -0.997190 0.074899 0.001200
vn -0.002000 0.055298 0.998468
vn 0.000000 0.606603 0.795005
vn 0.000000 0.921456 0.388482
vn 0.000000 0.381695 0.924288
vn -0.000000 -0.964143 -0.265384
vn -0.000000 -0.997354 -0.072697
vn -0.000000 -0.863296 -0.504698
vn -0.000000 -0.704502 -0.709702
vn -0.000000 -0.498302 -0.867004
vn -0.000000 -0.258198 -0.966092
vn -0.000000 -0.065298 -0.997866
vn 0.000000 0.790530 0.612423
vn 0.000000 0.990474 0.137696
vn 0.000000 0.102800 0.994702
vn 0.000000 0.999981 0.006200
vn -0.000000 -0.964136 -0.265410
vn -0.000000 -0.997346 -0.072803
vn -0.000000 -0.863227 -0.504816
vn -0.000000 -0.921406 -0.388602
vn -0.520190 0.594889 0.612788
vn -0.861818 0.507211 -0.002500
vn 0.999999 -0.000400 -0.001300
vn -0.000000 -0.700829 -0.713329
vn -0.000000 -0.706607 -0.707607
vn 0.000000 0.700880 0.713279
vn 0.000000 0.700678 0.713478
vn 0.506997 0.718795 0.475697
vn 0.524497 0.694797 0.492098
vn -0.506997 0.718795 -0.475697
vn -0.524497 0.694797 -0.492098
vn -0.644502 0.000000 0.764602
vn 0.278000 -0.924500 0.260800
vn 0.072602 -0.995033 0.068102
vn 0.077396 -0.994354 0.072597
vn 0.286195 -0.919784 0.268495
vn 0.514886 -0.708181 0.483087
vn 0.519630 -0.701641 0.487529
vn 0.673420 -0.383811 0.631819
vn 0.674838 -0.379121 0.633136
vn 0.725740 -0.098105 0.680938
vn 0.725781 -0.097497 0.680982
vn -0.272607 -0.927523 -0.255706
vn -0.065702 -0.995930 -0.061702
vn -0.070600 -0.995306 -0.066200
vn -0.280889 -0.922862 -0.263489
vn -0.512326 -0.711636 -0.480724
vn -0.517190 -0.704987 -0.485291
vn -0.672902 -0.385401 -0.631402
vn -0.674381 -0.380689 -0.632682
vn -0.725726 -0.098304 -0.680924
vn -0.725774 -0.097596 -0.680975
vn 0.707107 0.707107 0.000000
vn -0.707107 0.707107 0.000000
vn 0.382690 -0.923877 0.000000
vn 0.097999 -0.995187 0.000000
vn 0.707107 -0.707107 0.000000
vn 0.923877 -0.382690 0.000000
vn 0.995187 -0.097999 0.000000
vn -0.923877 -0.382690 -0.000000
vn -0.995187 -0.097999 -0.000000
vn -0.707107 -0.707107 -0.000000
vn -0.382690 -0.923877 -0.000000
vn -0.097999 -0.995187 -0.000000
vn 0.000000 0.700779 -0.713379
vn -0.722532 0.691331 -0.002900
vn 0.955740 0.294212 -0.000800
vn 0.956018 0.293306 -0.000800
vn 0.723121 0.690720 0.001400
vn 0.722535 0.691333 -0.001200
vn -0.004400 0.054999 0.998477
vn -0.722535 0.691333 -0.001200
vn 0.999988 0.000000 0.004800
vn 0.999999 0.000000 0.001200
vn -0.999992 -0.000000 -0.004000
vn -0.004400 0.000000 0.999990
vn -0.002000 -0.000000 -0.999998
vn 0.004400 0.000000 -0.999990
vn 0.997190 0.074899 0.001200
vn -0.999999 -0.000000 -0.001200
vn 0.004400 0.054999 -0.998477
vn -0.997425 0.071702 -0.001200
vn 0.002000 0.055298 0.998468
vn 0.997425 0.071702 0.001200
vn -0.997190 0.074899 -0.001200
vn -0.002000 0.055298 -0.998468
vn 0.000000 0.606603 -0.795005
vn 0.000000 0.921456 -0.388482
vn 0.000000 0.381695 -0.924288
vn 0.000000 -0.997354 0.072697
vn 0.000000 -0.964143 0.265384
vn 0.000000 -0.863296 0.504698
vn 0.000000 -0.704502 0.709702
vn 0.000000 -0.498302 0.867004
vn 0.000000 -0.258198 0.966092
vn 0.000000 -0.065298 0.997866
vn 0.000000 0.790530 -0.612423
vn 0.000000 0.990474 -0.137696
vn 0.000000 0.102800 -0.994702
vn 0.000000 0.999981 -0.006200
vn 0.000000 -0.997346 0.072803
vn 0.000000 -0.964136 0.265410
vn 0.000000 -0.863227 0.504816
vn 0.000000 -0.921406 0.388602
vn -0.520190 0.594889 -0.612788
vn -0.861818 0.507211 0.002500
vn 0.999999 -0.000400 0.001300
vn 0.000000 -0.700829 0.713329
vn 0.000000 -0.706607 0.707607
vn 0.000000 0.700880 -0.713279
vn 0.000000 0.700678 -0.713478
vn -0.506997 0.718795 0.475697
vn 0.524497 0.694797 -0.492098
vn 0.506997 0.718795 -0.475697
vn -0.524497 0.694797 0.492098
vn -0.644502 -0.000000 -0.764602
vn 0.077396 -0.994354 -0.072597
vn 0.072602 -0.995033 -0.068102
vn 0.278000 -0.924500 -0.260800
vn 0.286195 -0.919784 -0.268495
vn 0.514886 -0.708181 -0.483087
vn 0.519630 -0.701641 -0.487529
vn 0.673420 -0.383811 -0.631819
vn 0.674838 -0.379121 -0.633136
vn 0.725740 -0.098105 -0.680938
vn 0.725781 -0.097497 -0.680982
vn -0.070600 -0.995306 0.066200
vn -0.065702 -0.995930 0.061702
vn -0.272607 -0.927523 0.255706
vn -0.280889 -0.922862 0.263489
vn -0.512326 -0.711636 0.480724
vn -0.517190 -0.704987 0.485291
vn -0.672902 -0.385401 0.631402
vn -0.674381 -0.380689 0.632682
vn -0.725726 -0.098304 0.680924
vn -0.725774 -0.097596 0.680975

# Mesh
g Cylinder
usemtl Material
f 1/1/1 2/2/2 3/3/2
f 3/3/2 4/4/1 1/1/1
f 5/5/3 1/1/1 4/4/1
f 4/4/1 6/6/3 5/5/3
f 7/7/4 5/5/3 6/6/3
f 6/6/3 8/8/4 7/7/4
f 9/9/5 7/7/4 8/8/4
f 8/8/4 10/10/5 9/9/5
f 11/11/6 9/12/5 10/13/5
f 10/13/5 12/14/6 11/11/6
f 13/15/7 11/11/6 12/14/6
f 12/14/6 14/16/7 13/15/7
f 15/17/8 13/15/7 14/16/7
f 14/16/7 16/18/8 15/17/8
f 17/19/9 15/17/8 16/18/8
f 16/18/8 18/20/9 17/19/9
f 19/21/10 17/19/9 18/20/9
f 18/20/9 20/22/10 19/21/10
f 21/23/11 19/21/10 20/22/10
f 20/22/10 22/24/11 21/23/11
f 23/25/12 21/23/11 22/24/11
f 22/24/11 24/26/12 23/25/12
f 25/27/13 23/25/12 24/26/12
f 24/26/12 26/28/13 25/27/13
f 27/29/14 25/30/13 26/31/13
f 26/31/13 28/32/14 27/29/14
f 29/33/15 27/29/14 28/32/14
f 28/32/14 30/34/15 29/33/15
f 31/35/16 29/33/15 30/34/15
f 30/34/15 32/36/16 31/35/16
f 33/37/17 31/35/16 32/36/16
f 32/36/16 34/38/17 33/37/17
f 35/39/18 33/37/17 34/38/17
f 34/38/17 36/40/18 35/39/18
f 37/41/19 35/39/18 36/40/18
f 36/40/18 38/42/19 37/41/19
f 39/43/20 37/41/19 38/42/19
f 38/42/19 40/44/20 39/43/20
f 41/45/21 39/43/20 40/44/20
f 40/44/20 42/46/21 41/45/21
f 43/47/22 41/48/21 42/49/21
f 42/49/21 44/50/22 43/47/22
f 45/51/23 43/47/22 44/50/22
f 44/50/22 46/52/23 45/51/23
f 47/53/24 45/51/23 46/52/23
f 46/52/23 48/54/24 47/53/24
f 49/55/25 47/53/24 48/54/24
f 48/54/24 50/56/25 49/55/25
f 51/57/26 49/55/25 50/56/25
f 50/56/25 52/58/26 51/57/26
f 53/59/27 51/57/26 52/58/26
f 52/58/26 54/60/27 53/59/27
f 55/61/28 53/59/27 54/60/27
f 54/60/27 56/62/28 55/61/28
f 57/63/29 55/61/28 56/62/28
f 56/62/28 58/64/29 57/63/29
f 59/65/30 57/66/29 58/67/29
f 58/67/29 60/68/30 59/65/30
f 61/69/31 59/65/30 60/68/30
f 60/68/30 62/70/31 61/69/31
f 63/71/32 12/72/32 10/73/32
f 10/73/32 64/74/32 63/71/32
f 65/75/33 61/69/31 62/70/31
f 62/70/31 66/76/33 65/75/33
f 2/2/2 65/75/33 66/76/33
f 66/76/33 3/3/2 2/2/2
f 67/77/13 68/78/13 69/79/12
f 69/79/12 70/80/12 67/77/13
f 71/81/32 30/82/32 28/83/32
f 28/83/32 72/84/32 71/81/32
f 73/85/32 48/86/32 46/87/32
f 46/87/32 74/88/32 73/85/32
f 75/89/32 4/90/32 3/91/32
f 3/91/32 76/92/32 75/89/32
f 76/92/32 3/91/32 66/93/32
f 66/93/32 77/94/32 76/92/32
f 78/95/32 22/96/32 20/97/32
f 20/97/32 79/98/32 78/95/32
f 80/99/32 40/100/32 38/101/32
f 38/101/32 81/102/32 80/99/32
f 82/103/32 58/104/32 56/105/32
f 56/105/32 83/106/32 82/103/32
f 84/107/32 14/108/32 12/72/32
f 12/72/32 63/71/32 84/107/32
f 85/109/32 32/110/32 30/82/32
f 30/82/32 71/81/32 85/109/32
f 86/111/32 50/112/32 48/86/32
f 48/86/32 73/85/32 86/111/32
f 87/113/32 6/114/32 4/90/32
f 4/90/32 75/89/32 87/113/32
f 69/115/32 24/116/32 22/96/32
f 22/96/32 78/95/32 69/115/32
f 88/117/32 42/118/32 40/100/32
f 40/100/32 80/99/32 88/117/32
f 89/119/32 60/120/32 58/104/32
f 58/104/32 82/103/32 89/119/32
f 90/121/32 16/122/32 14/108/32
f 14/108/32 84/107/32 90/121/32
f 91/123/32 34/124/32 32/110/32
f 32/110/32 85/109/32 91/123/32
f 92/125/32 52/126/32 50/112/32
f 50/112/32 86/111/32 92/125/32
f 93/127/32 8/128/32 6/114/32
f 6/114/32 87/113/32 93/127/32
f 68/129/32 26/130/32 24/116/32
f 24/116/32 69/115/32 68/129/32
f 94/131/32 44/132/32 42/118/32
f 42/118/32 88/117/32 94/131/32
f 95/133/32 62/134/32 60/120/32
f 60/120/32 89/119/32 95/133/32
f 96/135/32 18/136/32 16/122/32
f 16/122/32 90/121/32 96/135/32
f 97/137/32 36/138/32 34/124/32
f 34/124/32 91/123/32 97/137/32
f 98/139/32 54/140/32 52/126/32
f 52/126/32 92/125/32 98/139/32
f 64/74/32 10/73/32 8/128/32
f 8/128/32 93/127/32 64/74/32
f 72/84/32 28/83/32 26/130/32
f 26/130/32 68/129/32 72/84/32
f 74/88/32 46/87/32 44/132/32
f 44/132/32 94/131/32 74/88/32
f 77/94/32 66/93/32 62/134/32
f 62/134/32 95/133/32 77/94/32
f 79/98/32 20/97/32 18/136/32
f 18/136/32 96/135/32 79/98/32
f 81/102/32 38/101/32 36/138/32
f 36/138/32 97/137/32 81/102/32
f 83/106/32 56/105/32 54/140/32
f 54/140/32 98/139/32 83/106/32
f 99/141/34 100/142/34 101/143/34
f 101/143/34 102/144/34 99/141/34
f 103/145/27 98/146/27 92/147/26
f 92/147/26 104/148/26 103/145/27
f 105/149/14 72/150/14 68/151/13
f 68/151/13 67/152/13 105/149/14
f 106/153/28 83/154/28 98/146/27
f 98/146/27 103/145/27 106/153/28
f 101/155/15 71/156/15 72/150/14
f 72/150/14 105/149/14 101/155/15
f 107/157/1 75/158/1 76/159/2
f 76/159/2 108/160/2 107/157/1
f 109/161/29 82/162/29 83/154/28
f 83/154/28 106/153/28 109/161/29
f 100/163/16 85/164/16 71/156/15
f 71/156/15 101/155/15 100/163/16
f 110/165/3 87/166/3 75/158/1
f 75/158/1 107/157/1 110/165/3
f 111/167/30 89/168/30 82/169/29
f 82/169/29 109/170/29 111/167/30
f 112/171/17 91/172/17 85/164/16
f 85/164/16 100/163/16 112/171/17
f 113/173/4 93/174/4 87/166/3
f 87/166/3 110/165/3 113/173/4
f 114/175/31 95/176/31 89/168/30
f 89/168/30 111/167/30 114/175/31
f 115/177/18 97/178/18 91/172/17
f 91/172/17 112/171/17 115/177/18
f 116/179/5 64/180/5 93/174/4
f 93/174/4 113/173/4 116/179/5
f 117/181/33 77/182/33 95/176/31
f 95/176/31 114/175/31 117/181/33
f 118/183/19 81/184/19 97/178/18
f 97/178/18 115/177/18 118/183/19
f 119/185/6 63/186/6 64/187/5
f 64/187/5 116/188/5 119/185/6
f 108/160/2 76/159/2 77/182/33
f 77/182/33 117/181/33 108/160/2
f 120/189/20 80/190/20 81/184/19
f 81/184/19 118/183/19 120/189/20
f 121/191/7 84/192/7 63/186/6
f 63/186/6 119/185/6 121/191/7
f 122/193/21 88/194/21 80/190/20
f 80/190/20 120/189/20 122/193/21
f 123/195/8 90/196/8 84/192/7
f 84/192/7 121/191/7 123/195/8
f 124/197/22 94/198/22 88/199/21
f 88/199/21 122/200/21 124/197/22
f 125/201/9 96/202/9 90/196/8
f 90/196/8 123/195/8 125/201/9
f 126/203/23 74/204/23 94/198/22
f 94/198/22 124/197/22 126/203/23
f 127/205/10 79/206/10 96/202/9
f 96/202/9 125/201/9 127/205/10
f 128/207/24 73/208/24 74/204/23
f 74/204/23 126/203/23 128/207/24
f 129/209/11 78/210/11 79/206/10
f 79/206/10 127/205/10 129/209/11
f 130/211/25 86/212/25 73/208/24
f 73/208/24 128/207/24 130/211/25
f 70/80/12 69/79/12 78/210/11
f 78/210/11 129/209/11 70/80/12
f 104/148/26 92/147/26 86/212/25
f 86/212/25 130/211/25 104/148/26
f 131/213/35 132/214/35 133/215/36
f 133/215/36 134/216/36 131/213/35
f 135/217/34 110/218/34 107/219/34
f 107/219/34 136/220/34 135/217/34
f 137/221/34 111/222/34 109/223/34
f 109/223/34 138/224/34 137/221/34
f 139/225/34 112/226/34 100/142/34
f 100/142/34 99/141/34 139/225/34
f 140/227/34 113/228/34 110/218/34
f 110/218/34 135/217/34 140/227/34
f 141/229/34 114/230/34 111/222/34
f 111/222/34 137/221/34 141/229/34
f 133/231/34 115/232/34 112/226/34
f 112/226/34 139/225/34 133/231/34
f 142/233/34 116/234/34 113/228/34
f 113/228/34 140/227/34 142/233/34
f 143/235/34 117/236/34 114/230/34
f 114/230/34 141/229/34 143/235/34
f 132/237/34 118/238/34 115/232/34
f 115/232/34 133/231/34 132/237/34
f 144/239/34 119/240/34 116/234/34
f 116/234/34 142/233/34 144/239/34
f 145/241/34 108/242/34 117/236/34
f 117/236/34 143/235/34 145/241/34
f 146/243/34 120/244/34 118/238/34
f 118/238/34 132/237/34 146/243/34
f 147/245/34 121/246/34 119/240/34
f 119/240/34 144/239/34 147/245/34
f 148/247/34 122/248/34 120/244/34
f 120/244/34 146/243/34 148/247/34
f 149/249/34 123/250/34 121/246/34
f 121/246/34 147/245/34 149/249/34
f 150/251/34 124/252/34 122/248/34
f 122/248/34 148/247/34 150/251/34
f 151/253/34 125/254/34 123/250/34
f 123/250/34 149/249/34 151/253/34
f 152/255/34 126/256/34 124/252/34
f 124/252/34 150/251/34 152/255/34
f 153/257/34 127/258/34 125/254/34
f 125/254/34 151/253/34 153/257/34
f 154/259/34 128/260/34 126/256/34
f 126/256/34 152/255/34 154/259/34
f 155/261/34 129/262/34 127/258/34
f 127/258/34 153/257/34 155/261/34
f 156/263/34 130/264/34 128/260/34
f 128/260/34 154/259/34 156/263/34
f 157/265/34 70/266/34 129/262/34
f 129/262/34 155/261/34 157/265/34
f 158/267/34 104/268/34 130/264/34
f 130/264/34 156/263/34 158/267/34
f 159/269/34 67/270/34 70/266/34
f 70/266/34 157/265/34 159/269/34
f 160/271/34 103/272/34 104/268/34
f 104/268/34 158/267/34 160/271/34
f 161/273/34 105/274/34 67/270/34
f 67/270/34 159/269/34 161/273/34
f 162/275/34 106/276/34 103/272/34
f 103/272/34 160/271/34 162/275/34
f 102/144/34 101/143/34 105/274/34
f 105/274/34 161/273/34 102/144/34
f 136/220/34 107/219/34 108/242/34
f 108/242/34 145/241/34 136/220/34
f 138/224/34 109/223/34 106/276/34
f 106/276/34 162/275/34 138/224/34
f 163/277/32 164/278/32 165/279/32
f 163/277/32 165/279/32 166/280/32
f 163/277/32 166/280/32 167/281/32
f 163/277/32 167/281/32 168/282/32
f 163/277/32 168/282/32 169/283/32
f 163/277/32 169/283/32 170/284/32
f 163/277/32 170/284/32 171/285/32
f 163/277/32 171/285/32 172/286/32
f 163/277/32 172/286/32 173/287/32
f 163/277/32 173/287/32 174/288/32
f 163/277/32 174/288/32 175/289/32
f 163/277/32 175/289/32 176/290/32
f 163/277/32 176/290/32 177/291/32
f 163/277/32 177/291/32 178/292/32
f 163/277/32 178/292/32 131/293/32
f 163/277/32 131/293/32 134/294/32
f 163/277/32 134/294/32 179/295/32
f 163/277/32 179/295/32 180/296/32
f 163/277/32 180/296/32 181/297/32
f 163/277/32 181/297/32 182/298/32
f 163/277/32 182/298/32 183/299/32
f 163/277/32 183/299/32 184/300/32
f 163/277/32 184/300/32 185/301/32
f 163/277/32 185/301/32 186/302/32
f 163/277/32 186/302/32 187/303/32
f 163/277/32 187/303/32 188/304/32
f 163/277/32 188/304/32 189/305/32
f 163/277/32 189/305/32 190/306/32
f 163/277/32 190/306/32 191/307/32
f 191/307/32 192/308/32 163/277/32
f 190/309/37 144/310/37 142/311/38
f 142/311/38 191/312/38 190/309/37
f 165/313/39 145/314/39 143/315/40
f 143/315/40 166/316/40 165/313/39
f 178/317/41 146/318/41 132/214/35
f 132/214/35 131/213/35 178/317/41
f 189/319/42 147/320/42 144/310/37
f 144/310/37 190/309/37 189/319/42
f 177/321/43 148/322/43 146/318/41
f 146/318/41 178/317/41 177/321/43
f 188/323/44 149/324/44 147/320/42
f 147/320/42 189/319/42 188/323/44
f 176/325/45 150/326/45 148/327/43
f 148/327/43 177/328/43 176/325/45
f 187/329/46 151/330/46 149/324/44
f 149/324/44 188/323/44 187/329/46
f 175/331/47 152/332/47 150/326/45
f 150/326/45 176/325/45 175/331/47
f 186/333/48 153/334/48 151/330/46
f 151/330/46 187/329/46 186/333/48
f 174/335/49 154/336/49 152/332/47
f 152/332/47 175/331/47 174/335/49
f 185/337/50 155/338/50 153/334/48
f 153/334/48 186/333/48 185/337/50
f 173/339/51 156/340/51 154/336/49
f 154/336/49 174/335/49 173/339/51
f 184/341/52 157/342/52 155/338/50
f 155/338/50 185/337/50 184/341/52
f 172/343/53 158/344/53 156/340/51
f 156/340/51 173/339/51 172/343/53
f 183/345/54 159/346/54 157/342/52
f 157/342/52 184/341/52 183/345/54
f 171/347/55 160/348/55 158/344/53
f 158/344/53 172/343/53 171/347/55
f 182/349/56 161/350/56 159/351/54
f 159/351/54 183/352/54 182/349/56
f 170/353/57 162/354/57 160/348/55
f 160/348/55 171/347/55 170/353/57
f 181/355/58 102/356/58 161/350/56
f 161/350/56 182/349/56 181/355/58
f 164/357/59 136/358/59 145/314/39
f 145/314/39 165/313/39 164/357/59
f 169/359/60 138/360/60 162/354/57
f 162/354/57 170/353/57 169/359/60
f 180/361/61 99/362/61 102/356/58
f 102/356/58 181/355/58 180/361/61
f 163/363/62 135/364/62 136/358/59
f 136/358/59 164/357/59 163/363/62
f 168/365/63 137/366/63 138/367/60
f 138/367/60 169/368/60 168/365/63
f 179/369/64 139/370/64 99/362/61
f 99/362/61 180/361/61 179/369/64
f 192/371/65 140/372/65 135/364/62
f 135/364/62 163/363/62 192/371/65
f 167/373/66 141/374/66 137/366/63
f 137/366/63 168/365/63 167/373/66
f 134/216/36 133/215/36 139/370/64
f 139/370/64 179/369/64 134/216/36
f 191/375/38 142/376/38 140/372/65
f 140/372/65 192/371/65 191/375/38
f 166/316/40 143/315/40 141/374/66
f 141/374/66 167/373/66 166/316/40
f 193/377/67 194/378/67 195/379/67
f 193/377/67 195/379/67 196/380/67
f 196/380/67 197/381/67 193/377/67
f 198/382/32 197/383/32 196/384/32
f 196/384/32 199/385/32 198/382/32
f 200/386/2 201/387/2 202/388/2
f 202/388/2 203/389/2 200/386/2
f 204/390/68 197/391/68 198/392/68
f 198/392/68 205/393/68 204/390/68
f 206/394/69 207/395/69 208/396/69
f 208/396/69 209/397/69 206/394/69
f 210/398/70 211/399/70 212/400/70
f 212/400/70 213/401/70 210/398/70
f 214/402/2 215/403/2 197/381/2
f 197/381/2 216/404/2 217/405/2
f 197/381/2 217/405/2 218/406/2
f 218/406/2 219/407/2 220/408/2
f 218/406/2 220/408/2 214/402/2
f 214/402/2 197/381/2 218/406/2
f 221/409/17 222/410/17 223/411/17
f 221/409/17 223/411/17 210/412/17
f 210/412/17 213/413/17 198/414/17
f 198/414/17 221/409/17 210/412/17
f 224/415/32 204/416/32 205/417/32
f 205/417/32 225/418/32 224/415/32
f 205/419/71 198/414/71 213/413/71
f 213/413/71 225/420/71 205/419/71
f 225/421/72 213/401/72 212/400/72
f 225/421/72 212/400/72 216/422/72
f 216/422/72 224/423/72 225/421/72
f 224/424/73 216/404/73 197/381/73
f 197/381/73 204/425/73 224/424/73
f 222/426/74 226/427/74 227/428/74
f 227/428/74 223/429/74 222/426/74
f 226/427/75 219/430/75 218/431/75
f 218/431/75 227/428/75 226/427/75
f 211/399/70 217/432/70 216/422/70
f 216/422/70 212/400/70 211/399/70
f 211/399/9 227/428/9 218/431/9
f 218/431/9 217/432/9 211/399/9
f 210/398/9 223/429/9 227/428/9
f 227/428/9 211/399/9 210/398/9
f 228/433/67 208/434/67 229/435/67
f 229/435/67 230/436/67 228/433/67
f 231/437/76 196/438/76 207/395/76
f 207/395/76 206/394/76 231/437/76
f 196/438/77 232/439/77 207/395/77
f 233/440/78 209/441/78 234/442/78
f 234/442/78 235/443/78 233/440/78
f 207/395/79 232/439/79 208/396/79
f 232/444/67 196/380/67 195/379/67
f 208/434/67 232/445/67 229/435/67
f 236/446/32 199/385/32 196/384/32
f 196/384/32 231/447/32 236/446/32
f 237/448/80 238/449/80 199/450/80
f 199/450/80 236/451/80 237/448/80
f 239/452/81 240/453/81 209/454/81
f 209/454/81 241/455/81 239/452/81
f 234/456/82 242/457/82 243/458/82
f 243/458/82 244/459/82 234/456/82
f 234/460/32 209/461/32 208/462/32
f 208/462/32 242/463/32 234/460/32
f 242/464/83 208/434/83 245/465/83
f 245/465/83 243/466/83 242/464/83
f 246/467/84 247/468/84 248/469/84
f 248/469/84 249/470/84 246/467/84
f 250/471/85 239/472/85 241/473/85
f 241/473/85 251/474/85 250/471/85
f 252/475/86 246/476/86 236/451/86
f 236/451/86 253/477/86 252/475/86
f 247/478/87 231/479/87 254/480/87
f 254/480/87 248/481/87 247/478/87
f 251/482/87 234/456/87 244/459/87
f 244/459/87 250/483/87 251/482/87
f 249/484/81 237/448/81 236/451/81
f 236/451/81 246/476/81 249/484/81
f 255/485/32 233/486/32 235/487/32
f 235/487/32 256/488/32 255/485/32
f 252/489/32 253/490/32 257/491/32
f 257/491/32 258/492/32 252/489/32
f 256/493/88 251/474/88 241/473/88
f 241/473/88 255/494/88 256/493/88
f 235/495/89 234/456/89 251/482/89
f 251/482/89 256/496/89 235/495/89
f 253/497/90 236/498/90 231/499/90
f 231/499/90 257/500/90 253/497/90
f 255/501/91 241/455/91 209/454/91
f 209/454/91 233/502/91 255/501/91
f 257/503/92 231/479/92 247/478/92
f 247/478/92 258/504/92 257/503/92
f 258/505/93 247/468/93 246/467/93
f 246/467/93 252/506/93 258/505/93
f 259/507/17 260/508/17 261/509/17
f 261/509/17 262/510/17 259/507/17
f 263/511/94 264/512/94 265/513/94
f 265/513/94 266/514/94 263/511/94
f 267/515/95 268/516/95 269/517/95
f 269/517/95 270/518/95 267/515/95
f 266/514/96 265/513/96 271/519/96
f 271/519/96 272/520/96 266/514/96
f 268/521/9 273/522/9 274/523/9
f 274/523/9 269/524/9 268/521/9
f 275/525/9 276/526/9 273/522/9
f 273/522/9 268/521/9 275/525/9
f 277/527/9 278/528/9 276/526/9
f 276/526/9 275/525/9 277/527/9
f 269/524/9 274/523/9 279/529/9
f 279/529/9 264/530/9 269/524/9
f 265/531/9 280/532/9 281/533/9
f 281/533/9 271/534/9 265/531/9
f 271/534/9 281/533/9 282/535/9
f 282/535/9 260/536/9 271/534/9
f 273/537/97 276/538/98 283/539/98
f 283/539/98 284/540/97 273/537/97
f 274/541/99 273/537/97 284/540/97
f 284/540/97 285/542/99 274/541/99
f 279/543/100 274/541/99 285/542/99
f 285/542/99 286/544/100 279/543/100
f 280/545/101 279/546/100 286/547/100
f 286/547/100 287/548/101 280/545/101
f 281/549/102 280/545/101 287/548/101
f 287/548/101 288/550/102 281/549/102
f 282/551/103 281/549/102 288/550/102
f 288/550/102 289/552/103 282/551/103
f 282/551/103 289/552/103 290/553/2
f 290/553/2 291/554/2 282/551/103
f 278/555/34 292/556/34 283/539/98
f 283/539/98 276/538/98 278/555/34
f 264/530/9 279/529/9 280/532/9
f 280/532/9 265/531/9 264/530/9
f 293/557/9 294/558/9 295/559/9
f 270/518/104 269/517/104 264/560/104
f 264/560/104 263/561/104 270/518/104
f 296/562/105 275/563/105 268/516/105
f 268/516/105 267/515/105 296/562/105
f 272/520/106 271/519/106 260/508/106
f 260/508/106 259/507/106 272/520/106
f 260/536/9 282/535/9 291/564/9
f 291/564/9 261/565/9 260/536/9
f 297/566/9 298/567/9 290/568/9
f 297/566/9 290/568/9 289/569/9
f 297/566/9 289/569/9 288/570/9
f 297/566/9 288/570/9 287/571/9
f 297/566/9 287/571/9 286/572/9
f 283/573/9 292/574/9 299/575/9
f 283/573/9 299/575/9 300/576/9
f 283/573/9 300/576/9 301/577/9
f 283/573/9 301/577/9 302/578/9
f 283/573/9 302/578/9 303/579/9
f 303/579/9 304/580/9 305/581/9
f 303/579/9 305/581/9 297/566/9
f 303/579/9 297/566/9 286/572/9
f 303/579/9 286/572/9 285/582/9
f 303/579/9 285/582/9 284/583/9
f 284/583/9 283/573/9 303/579/9
f 306/584/107 277/585/107 275/563/107
f 275/563/107 296/562/107 306/584/107
f 301/586/108 300/587/109 307/588/109
f 307/588/109 308/589/108 301/586/108
f 302/590/110 301/586/108 308/589/108
f 302/590/110 308/589/108 309/591/111
f 309/591/111 310/592/110 302/590/110
f 303/593/100 302/590/110 310/592/110
f 310/592/110 311/594/100 303/593/100
f 304/595/101 303/596/100 311/597/100
f 311/597/100 312/598/101 304/595/101
f 305/599/102 304/595/101 312/598/101
f 312/598/101 294/600/102 305/599/102
f 297/601/103 305/599/102 294/600/102
f 294/600/102 293/602/103 297/601/103
f 220/603/9 313/604/9 293/557/9
f 220/603/9 293/557/9 295/559/9
f 295/559/9 214/605/9 220/603/9
f 307/606/9 314/607/9 315/608/9
f 307/606/9 315/608/9 316/609/9
f 316/609/9 317/610/9 307/606/9
f 297/601/103 293/602/103 313/611/2
f 313/611/2 298/612/2 297/601/103
f 214/605/9 295/559/9 318/613/9
f 214/605/9 318/613/9 317/610/9
f 214/605/9 317/610/9 316/609/9
f 316/609/9 215/614/9 214/605/9
f 299/615/34 314/616/34 307/588/109
f 307/588/109 300/587/109 299/615/34
f 319/617/17 245/465/17 208/434/17
f 208/434/17 228/433/17 319/617/17
f 320/618/112 230/436/112 321/619/112
f 321/620/113 230/621/113 322/622/113
f 323/623/25 324/624/25 321/620/25
f 321/620/25 322/622/25 323/623/25
f 325/625/17 319/617/17 228/433/17
f 228/433/17 320/618/17 325/625/17
f 228/433/67 230/436/67 320/618/67
f 296/626/114 267/627/114 270/628/114
f 296/626/114 270/628/114 263/629/114
f 296/626/114 263/629/114 266/630/114
f 296/626/114 266/630/114 272/631/114
f 296/626/114 272/631/114 259/632/114
f 296/626/114 259/632/114 262/633/114
f 296/626/114 262/633/114 326/634/114
f 326/634/114 306/635/114 296/626/114
f 295/559/9 294/558/9 312/636/9
f 312/636/9 311/637/9 295/559/9
f 295/559/9 311/637/9 318/613/9
f 317/610/9 310/638/9 309/639/9
f 317/610/9 309/639/9 308/640/9
f 308/640/9 307/606/9 317/610/9
f 317/610/9 311/637/9 310/638/9
f 318/613/9 311/637/9 317/610/9
f 327/641/9 328/642/9 329/643/9
f 329/643/9 330/644/9 327/641/9
f 331/645/2 315/646/2 194/647/2
f 194/647/2 332/648/2 331/645/2
f 328/649/115 215/403/115 316/650/115
f 316/650/115 329/651/115 328/649/115
f 330/644/9 329/643/9 331/652/9
f 331/652/9 332/653/9 330/644/9
f 329/651/116 316/650/116 315/654/116
f 315/654/116 331/655/116 329/651/116
f 330/656/117 193/377/117 197/381/117
f 197/381/117 327/657/117 330/656/117
f 332/658/118 194/378/118 193/377/118
f 193/377/118 330/656/118 332/658/118
f 327/657/17 197/381/17 215/403/17
f 215/403/17 328/649/17 327/657/17
f 333/659/119 334/660/120 335/661/121
f 335/661/121 336/662/122 333/659/119
f 334/663/123 324/664/123 325/625/123
f 325/625/123 335/665/123 334/663/123
f 337/666/123 338/667/123 339/668/123
f 338/667/123 340/669/123 339/668/123
f 340/669/123 341/670/123 339/668/123
f 341/670/123 342/671/123 339/668/123
f 343/672/123 344/673/123 345/674/123
f 344/673/123 346/675/123 345/674/123
f 346/675/123 347/676/123 345/674/123
f 347/676/123 348/677/123 345/674/123
f 349/678/124 350/679/125 348/680/126
f 348/680/126 347/681/127 349/678/124
f 351/682/128 349/678/124 347/681/127
f 347/681/127 346/683/129 351/682/128
f 352/684/130 351/685/128 346/686/129
f 346/686/129 344/687/131 352/684/130
f 353/688/132 352/684/130 344/687/131
f 344/687/131 343/689/133 353/688/132
f 338/690/134 337/691/135 354/692/136
f 354/692/136 355/693/137 338/690/134
f 340/694/138 338/690/134 355/693/137
f 355/693/137 356/695/139 340/694/138
f 341/696/140 340/697/138 356/698/139
f 356/698/139 357/699/141 341/696/140
f 342/700/142 341/696/140 357/699/141
f 357/699/141 358/701/143 342/700/142
f 336/702/122 335/703/121 342/700/142
f 342/700/142 358/701/143 336/702/122
f 335/665/123 325/625/123 320/618/123
f 335/665/123 320/618/123 339/668/123
f 339/668/123 342/671/123 335/665/123
f 354/692/136 337/691/135 348/680/126
f 348/680/126 350/679/125 354/692/136
f 339/668/123 320/618/123 321/619/123
f 339/668/123 321/619/123 345/674/123
f 339/668/123 345/674/123 348/677/123
f 348/677/123 337/666/123 339/668/123
f 353/688/132 343/689/133 334/704/120
f 334/704/120 333/705/119 353/688/132
f 345/674/123 321/619/123 324/664/123
f 345/674/123 324/664/123 334/663/123
f 334/663/123 343/672/123 345/674/123
f 333/706/123 336/707/123 358/708/123
f 333/706/123 358/708/123 357/709/123
f 333/706/123 357/709/123 356/710/123
f 333/706/123 356/710/123 355/711/123
f 333/706/123 355/711/123 354/712/123
f 333/706/123 354/712/123 350/713/123
f 333/706/123 350/713/123 349/714/123
f 333/706/123 349/714/123 351/715/123
f 333/706/123 351/715/123 352/716/123
f 352/716/123 353/717/123 333/706/123
f 359/718/144 360/719/144 361/720/145
f 361/720/145 362/721/145 359/718/144
f 360/722/17 240/723/17 254/724/17
f 254/724/17 361/725/17 360/722/17
f 363/726/17 364/727/17 365/728/17
f 364/727/17 366/729/17 365/728/17
f 366/729/17 367/730/17 365/728/17
f 367/730/17 368/731/17 365/728/17
f 369/732/17 370/733/17 371/734/17
f 370/733/17 372/735/17 371/734/17
f 372/735/17 373/736/17 371/734/17
f 373/736/17 374/737/17 371/734/17
f 375/738/146 376/739/147 374/740/147
f 374/740/147 373/741/146 375/738/146
f 377/742/148 375/738/146 373/741/146
f 373/741/146 372/743/148 377/742/148
f 378/744/149 377/745/148 372/746/148
f 372/746/148 370/747/149 378/744/149
f 379/748/150 378/744/149 370/747/149
f 370/747/149 369/749/150 379/748/150
f 380/750/151 381/751/152 368/752/152
f 368/752/152 367/753/151 380/750/151
f 382/754/153 380/750/151 367/753/151
f 367/753/151 366/755/153 382/754/153
f 383/756/154 382/757/153 366/758/153
f 366/758/153 364/759/154 383/756/154
f 384/760/155 383/756/154 364/759/154
f 364/759/154 363/761/155 384/760/155
f 362/762/145 361/763/145 368/752/152
f 368/752/152 381/751/152 362/762/145
f 361/725/17 254/724/17 231/764/17
f 361/725/17 231/764/17 365/728/17
f 365/728/17 368/731/17 361/725/17
f 384/760/155 363/761/155 374/740/147
f 374/740/147 376/739/147 384/760/155
f 365/728/17 231/764/17 206/765/17
f 365/728/17 206/765/17 209/766/17
f 365/728/17 209/766/17 371/734/17
f 365/728/17 371/734/17 374/737/17
f 374/737/17 363/726/17 365/728/17
f 379/748/150 369/749/150 360/767/144
f 360/767/144 359/768/144 379/748/150
f 371/734/17 209/766/17 240/723/17
f 371/734/17 240/723/17 360/722/17
f 360/722/17 369/732/17 371/734/17
f 362/769/17 381/770/17 380/771/17
f 362/769/17 380/771/17 382/772/17
f 362/769/17 382/772/17 383/773/17
f 362/769/17 383/773/17 384/774/17
f 362/769/17 384/774/17 376/775/17
f 362/769/17 376/775/17 375/776/17
f 362/769/17 375/776/17 377/777/17
f 362/769/17 377/777/17 378/778/17
f 362/769/17 378/778/17 379/779/17
f 379/779/17 359/780/17 362/769/17
f 195/379/156 194/378/156 385/781/156
f 195/379/156 385/781/156 386/782/156
f 386/782/156 387/783/156 195/379/156
f 387/784/32 386/785/32 388/786/32
f 388/786/32 389/787/32 387/784/32
f 390/788/17 238/789/17 221/409/17
f 221/409/17 391/790/17 390/788/17
f 388/791/68 386/792/68 392/793/68
f 392/793/68 393/794/68 388/791/68
f 394/795/157 395/796/157 396/797/157
f 396/797/157 397/798/157 394/795/157
f 398/799/70 399/800/70 400/801/70
f 400/801/70 401/802/70 398/799/70
f 402/803/17 403/804/17 404/805/17
f 402/803/17 404/805/17 405/806/17
f 405/806/17 406/807/17 386/782/17
f 405/806/17 386/782/17 407/808/17
f 405/806/17 407/808/17 408/809/17
f 402/803/17 405/806/17 408/809/17
f 388/810/2 401/811/2 400/812/2
f 388/810/2 400/812/2 409/813/2
f 409/813/2 410/814/2 201/387/2
f 388/810/2 409/813/2 201/387/2
f 393/815/32 392/816/32 411/817/32
f 411/817/32 412/818/32 393/815/32
f 401/811/73 388/810/73 393/819/73
f 393/819/73 412/820/73 401/811/73
f 398/799/72 401/802/72 412/821/72
f 398/799/72 412/821/72 411/822/72
f 411/822/72 406/823/72 398/799/72
f 386/782/71 406/807/71 411/824/71
f 411/824/71 392/825/71 386/782/71
f 413/826/158 414/827/158 410/828/158
f 410/828/158 409/829/158 413/826/158
f 404/830/159 403/831/159 414/827/159
f 414/827/159 413/826/159 404/830/159
f 406/823/70 405/832/70 399/800/70
f 399/800/70 398/799/70 406/823/70
f 404/830/9 413/826/9 399/800/9
f 399/800/9 405/832/9 404/830/9
f 413/826/9 409/829/9 400/801/9
f 400/801/9 399/800/9 413/826/9
f 229/435/156 394/833/156 415/834/156
f 415/834/156 230/436/156 229/435/156
f 395/796/160 387/835/160 416/836/160
f 416/836/160 396/797/160 395/796/160
f 387/835/161 395/796/161 232/837/161
f 417/838/162 397/839/162 418/840/162
f 418/840/162 419/841/162 417/838/162
f 395/796/163 394/795/163 232/837/163
f 232/444/156 195/379/156 387/783/156
f 394/833/156 229/435/156 232/445/156
f 387/784/32 389/787/32 420/842/32
f 420/842/32 416/843/32 387/784/32
f 389/844/164 202/845/164 421/846/164
f 421/846/164 420/847/164 389/844/164
f 397/848/165 422/849/165 423/850/165
f 423/850/165 424/851/165 397/848/165
f 425/852/166 426/853/166 417/854/166
f 417/854/166 427/855/166 425/852/166
f 394/856/32 397/857/32 417/858/32
f 417/858/32 426/859/32 394/856/32
f 428/860/167 394/833/167 426/861/167
f 426/861/167 425/862/167 428/860/167
f 429/863/168 430/864/168 431/865/168
f 431/865/168 432/866/168 429/863/168
f 424/867/169 423/868/169 433/869/169
f 433/869/169 434/870/169 424/867/169
f 420/847/170 431/871/170 435/872/170
f 435/872/170 436/873/170 420/847/170
f 437/874/171 416/875/171 430/876/171
f 430/876/171 429/877/171 437/874/171
f 427/855/171 417/854/171 434/878/171
f 434/878/171 433/879/171 427/855/171
f 420/847/165 421/846/165 432/880/165
f 432/880/165 431/871/165 420/847/165
f 419/881/32 418/882/32 438/883/32
f 438/883/32 439/884/32 419/881/32
f 440/885/32 436/886/32 435/887/32
f 435/887/32 441/888/32 440/885/32
f 424/867/172 434/870/172 439/889/172
f 439/889/172 438/890/172 424/867/172
f 434/878/173 417/854/173 419/891/173
f 419/891/173 439/892/173 434/878/173
f 416/893/174 420/894/174 436/895/174
f 436/895/174 440/896/174 416/893/174
f 397/848/175 424/851/175 438/897/175
f 438/897/175 418/898/175 397/848/175
f 430/876/176 416/875/176 440/899/176
f 440/899/176 441/900/176 430/876/176
f 431/865/177 430/864/177 441/901/177
f 441/901/177 435/902/177 431/865/177
f 442/903/2 443/904/2 444/905/2
f 444/905/2 445/906/2 442/903/2
f 446/907/178 447/908/178 448/909/178
f 448/909/178 449/910/178 446/907/178
f 450/911/179 451/912/179 452/913/179
f 452/913/179 453/914/179 450/911/179
f 454/915/180 446/907/180 449/910/180
f 449/910/180 455/916/180 454/915/180
f 456/917/9 457/918/9 451/919/9
f 451/919/9 450/920/9 456/917/9
f 457/918/9 458/921/9 459/922/9
f 459/922/9 451/919/9 457/918/9
f 458/921/9 278/923/9 460/924/9
f 460/924/9 459/922/9 458/921/9
f 461/925/9 456/917/9 450/920/9
f 450/920/9 447/926/9 461/925/9
f 462/927/9 463/928/9 446/929/9
f 446/929/9 454/930/9 462/927/9
f 464/931/9 462/927/9 454/930/9
f 454/930/9 443/932/9 464/931/9
f 465/933/181 458/934/181 457/935/182
f 457/935/182 466/936/182 465/933/181
f 466/936/182 457/935/182 456/937/183
f 456/937/183 467/938/183 466/936/182
f 467/938/183 456/937/183 461/939/184
f 461/939/184 468/940/184 467/938/183
f 468/941/184 461/942/184 463/943/185
f 463/943/185 469/944/185 468/941/184
f 469/944/185 463/943/185 462/945/186
f 462/945/186 470/946/186 469/944/185
f 470/946/186 462/945/186 464/947/187
f 464/947/187 471/948/187 470/946/186
f 472/949/17 471/948/187 464/947/187
f 464/947/187 473/950/17 472/949/17
f 465/933/181 292/556/34 278/555/34
f 278/555/34 458/934/181 465/933/181
f 463/928/9 461/925/9 447/926/9
f 447/926/9 446/929/9 463/928/9
f 474/951/9 475/952/9 476/953/9
f 447/954/188 450/911/188 453/914/188
f 453/914/188 448/955/188 447/954/188
f 451/912/189 459/956/189 477/957/189
f 477/957/189 452/913/189 451/912/189
f 443/904/190 454/915/190 455/916/190
f 455/916/190 444/905/190 443/904/190
f 473/958/9 464/931/9 443/932/9
f 443/932/9 442/959/9 473/958/9
f 472/960/9 478/961/9 479/962/9
f 472/960/9 479/962/9 480/963/9
f 472/960/9 480/963/9 481/964/9
f 481/964/9 482/965/9 483/966/9
f 481/964/9 483/966/9 484/967/9
f 481/964/9 484/967/9 485/968/9
f 481/964/9 485/968/9 299/575/9
f 299/575/9 292/574/9 465/969/9
f 299/575/9 465/969/9 466/970/9
f 299/575/9 466/970/9 467/971/9
f 471/972/9 472/960/9 481/964/9
f 481/964/9 299/575/9 467/971/9
f 481/964/9 467/971/9 468/973/9
f 481/964/9 468/973/9 469/974/9
f 481/964/9 469/974/9 470/975/9
f 481/964/9 470/975/9 471/972/9
f 459/956/191 460/976/191 486/977/191
f 486/977/191 477/957/191 459/956/191
f 487/978/192 485/979/192 484/980/193
f 484/980/193 488/981/193 487/978/192
f 488/981/193 484/980/193 483/982/194
f 488/981/193 483/982/194 489/983/194
f 489/983/194 490/984/195 488/981/193
f 489/983/194 483/982/194 482/985/184
f 482/985/184 491/986/184 489/983/194
f 491/987/184 482/988/184 481/989/185
f 481/989/185 492/990/185 491/987/184
f 492/990/185 481/989/185 480/991/186
f 480/991/186 476/992/186 492/990/185
f 476/992/186 480/991/186 479/993/187
f 479/993/187 474/994/187 476/992/186
f 474/951/9 493/995/9 402/996/9
f 474/951/9 402/996/9 408/997/9
f 408/997/9 475/952/9 474/951/9
f 315/608/9 314/607/9 487/998/9
f 315/608/9 487/998/9 494/999/9
f 494/999/9 495/1000/9 315/608/9
f 493/1001/17 474/994/187 479/993/187
f 479/993/187 478/1002/17 493/1001/17
f 496/1003/9 475/952/9 408/997/9
f 496/1003/9 408/997/9 407/1004/9
f 496/1003/9 407/1004/9 495/1000/9
f 495/1000/9 494/999/9 496/1003/9
f 487/978/192 314/616/34 299/615/34
f 299/615/34 485/979/192 487/978/192
f 394/833/2 428/860/2 497/1005/2
f 497/1005/2 415/834/2 394/833/2
f 498/1006/196 499/1007/196 230/436/196
f 499/1008/197 322/622/197 230/621/197
f 499/1008/25 500/1009/25 323/623/25
f 323/623/25 322/622/25 499/1008/25
f 415/834/2 497/1005/2 501/1010/2
f 501/1010/2 498/1006/2 415/834/2
f 415/834/156 498/1006/156 230/436/156
f 453/1011/198 452/1012/198 477/1013/198
f 453/1011/198 477/1013/198 486/1014/198
f 453/1011/198 486/1014/198 326/1015/198
f 453/1011/198 326/1015/198 445/1016/198
f 453/1011/198 445/1016/198 444/1017/198
f 453/1011/198 444/1017/198 455/1018/198
f 453/1011/198 455/1018/198 449/1019/198
f 449/1019/198 448/1020/198 453/1011/198
f 475/952/9 492/1021/9 476/953/9
f 492/1021/9 475/952/9 491/1022/9
f 475/952/9 496/1003/9 491/1022/9
f 494/999/9 490/1023/9 489/1024/9
f 488/1025/9 490/1023/9 494/999/9
f 494/999/9 487/998/9 488/1025/9
f 494/999/9 489/1024/9 491/1022/9
f 496/1003/9 494/999/9 491/1022/9
f 502/1026/9 503/1027/9 504/1028/9
f 504/1028/9 505/1029/9 502/1026/9
f 495/1030/199 407/808/199 503/1031/199
f 503/1031/199 502/1032/199 495/1030/199
f 331/652/9 502/1026/9 505/1029/9
f 505/1029/9 332/653/9 331/652/9
f 315/1033/200 495/1030/200 502/1032/200
f 502/1032/200 331/1034/200 315/1033/200
f 386/782/201 385/781/201 505/1035/201
f 505/1035/201 504/1036/201 386/782/201
f 385/781/202 194/378/202 332/1037/202
f 332/1037/202 505/1035/202 385/781/202
f 407/808/2 386/782/2 504/1036/2
f 504/1036/2 503/1031/2 407/808/2
f 506/1038/203 507/1039/204 508/1040/205
f 508/1040/205 509/1041/206 506/1038/203
f 501/1010/207 500/1042/207 507/1043/207
f 507/1043/207 506/1044/207 501/1010/207
f 510/1045/207 511/1046/207 512/1047/207
f 512/1047/207 511/1046/207 513/1048/207
f 513/1048/207 511/1046/207 514/1049/207
f 514/1049/207 511/1046/207 515/1050/207
f 516/1051/207 517/1052/207 518/1053/207
f 518/1053/207 517/1052/207 519/1054/207
f 519/1054/207 517/1052/207 520/1055/207
f 520/1055/207 517/1052/207 521/1056/207
f 521/1057/208 522/1058/209 523/1059/210
f 523/1059/210 520/1060/211 521/1057/208
f 520/1060/211 523/1059/210 524/1061/212
f 524/1061/212 519/1062/213 520/1060/211
f 519/1063/213 524/1064/212 525/1065/214
f 525/1065/214 518/1066/215 519/1063/213
f 518/1066/215 525/1065/214 526/1067/216
f 526/1067/216 516/1068/217 518/1066/215
f 527/1069/218 510/1070/219 512/1071/220
f 512/1071/220 528/1072/221 527/1069/218
f 528/1072/221 512/1071/220 513/1073/222
f 513/1073/222 529/1074/223 528/1072/221
f 529/1075/223 513/1076/222 514/1077/224
f 514/1077/224 530/1078/225 529/1075/223
f 530/1078/225 514/1077/224 515/1079/226
f 515/1079/226 531/1080/227 530/1078/225
f 515/1079/226 506/1081/203 509/1082/206
f 509/1082/206 531/1080/227 515/1079/226
f 498/1006/207 501/1010/207 506/1044/207
f 498/1006/207 506/1044/207 515/1050/207
f 515/1050/207 511/1046/207 498/1006/207
f 521/1057/208 510/1070/219 527/1069/218
f 527/1069/218 522/1058/209 521/1057/208
f 499/1007/207 498/1006/207 511/1046/207
f 499/1007/207 511/1046/207 510/1045/207
f 499/1007/207 510/1045/207 521/1056/207
f 521/1056/207 517/1052/207 499/1007/207
f 507/1083/204 516/1068/217 526/1067/216
f 526/1067/216 508/1084/205 507/1083/204
f 500/1042/207 499/1007/207 517/1052/207
f 500/1042/207 517/1052/207 516/1051/207
f 516/1051/207 507/1043/207 500/1042/207
f 531/1085/207 509/1086/207 508/1087/207
f 531/1085/207 508/1087/207 526/1088/207
f 531/1085/207 526/1088/207 525/1089/207
f 531/1085/207 525/1089/207 524/1090/207
f 531/1085/207 524/1090/207 523/1091/207
f 531/1085/207 523/1091/207 522/1092/207
f 531/1085/207 522/1092/207 527/1093/207
f 531/1085/207 527/1093/207 528/1094/207
f 531/1085/207 528/1094/207 529/1095/207
f 529/1095/207 530/1096/207 531/1085/207
f 532/1097/145 533/1098/144 534/1099/144
f 534/1099/144 535/1100/145 532/1097/145
f 437/1101/2 422/1102/2 533/1103/2
f 533/1103/2 532/1104/2 437/1101/2
f 536/1105/2 537/1106/2 538/1107/2
f 538/1107/2 537/1106/2 539/1108/2
f 539/1108/2 537/1106/2 540/1109/2
f 540/1109/2 537/1106/2 541/1110/2
f 542/1111/2 543/1112/2 544/1113/2
f 544/1113/2 543/1112/2 545/1114/2
f 545/1114/2 543/1112/2 546/1115/2
f 546/1115/2 543/1112/2 547/1116/2
f 547/1117/147 548/1118/147 549/1119/146
f 549/1119/146 546/1120/146 547/1117/147
f 546/1120/146 549/1119/146 550/1121/148
f 550/1121/148 545/1122/148 546/1120/146
f 545/1123/148 550/1124/148 551/1125/149
f 551/1125/149 544/1126/149 545/1123/148
f 544/1126/149 551/1125/149 552/1127/150
f 552/1127/150 542/1128/150 544/1126/149
f 541/1129/152 553/1130/152 554/1131/151
f 554/1131/151 540/1132/151 541/1129/152
f 540/1132/151 554/1131/151 555/1133/153
f 555/1133/153 539/1134/153 540/1132/151
f 539/1135/153 555/1136/153 556/1137/154
f 556/1137/154 538/1138/154 539/1135/153
f 538/1138/154 556/1137/154 557/1139/155
f 557/1139/155 536/1140/155 538/1138/154
f 541/1129/152 532/1141/145 535/1142/145
f 535/1142/145 553/1130/152 541/1129/152
f 416/1143/2 437/1101/2 532/1104/2
f 416/1143/2 532/1104/2 541/1110/2
f 541/1110/2 537/1106/2 416/1143/2
f 547/1117/147 536/1140/155 557/1139/155
f 557/1139/155 548/1118/147 547/1117/147
f 396/1144/2 416/1143/2 537/1106/2
f 396/1144/2 537/1106/2 536/1105/2
f 396/1144/2 536/1105/2 547/1116/2
f 396/1144/2 547/1116/2 543/1112/2
f 543/1112/2 397/1145/2 396/1144/2
f 533/1146/144 542/1128/150 552/1127/150
f 552/1127/150 534/1147/144 533/1146/144
f 422/1102/2 397/1145/2 543/1112/2
f 422/1102/2 543/1112/2 542/1111/2
f 542/1111/2 533/1103/2 422/1102/2
f 554/1148/2 553/1149/2 535/1150/2
f 554/1148/2 535/1150/2 534/1151/2
f 554/1148/2 534/1151/2 552/1152/2
f 554/1148/2 552/1152/2 551/1153/2
f 554/1148/2 551/1153/2 550/1154/2
f 554/1148/2 550/1154/2 549/1155/2
f 554/1148/2 549/1155/2 548/1156/2
f 554/1148/2 548/1156/2 557/1157/2
f 554/1148/2 557/1157/2 556/1158/2
f 556/1158/2 555/1159/2 554/1148/2
f 558/1160/144 390/1161/144 391/1162/145
f 391/1162/145 559/1163/145 558/1160/144
f 560/1164/145 200/1165/145 203/1166/144
f 203/1166/144 561/1167/144 560/1164/145
f 562/1168/17 563/1169/17 564/1170/17
f 563/1169/17 565/1171/17 564/1170/17
f 565/1171/17 566/1172/17 564/1170/17
f 566/1172/17 567/1173/17 564/1170/17
f 568/1174/17 569/1175/17 570/1176/17
f 569/1175/17 571/1177/17 570/1176/17
f 571/1177/17 572/1178/17 570/1176/17
f 572/1178/17 573/1179/17 570/1176/17
f 574/1180/2 575/1181/2 576/1182/2
f 575/1181/2 577/1183/2 576/1182/2
f 577/1183/2 578/1184/2 576/1182/2
f 578/1184/2 579/1185/2 576/1182/2
f 580/1186/2 581/1187/2 582/1188/2
f 581/1187/2 583/1189/2 582/1188/2
f 583/1189/2 584/1190/2 582/1188/2
f 584/1190/2 585/1191/2 582/1188/2
f 581/1192/151 580/1193/152 586/1194/152
f 586/1194/152 587/1195/151 581/1192/151
f 583/1196/153 581/1192/151 587/1195/151
f 587/1195/151 588/1197/153 583/1196/153
f 584/1198/154 583/1199/153 588/1200/153
f 588/1200/153 589/1201/154 584/1198/154
f 585/1202/155 584/1198/154 589/1201/154
f 589/1201/154 590/1203/155 585/1202/155
f 591/1204/149 592/1205/150 579/1206/150
f 579/1206/150 578/1207/149 591/1204/149
f 593/1208/148 591/1204/149 578/1207/149
f 578/1207/149 577/1209/148 593/1208/148
f 594/1210/146 593/1211/148 577/1212/148
f 577/1212/148 575/1213/146 594/1210/146
f 595/1214/147 594/1210/146 575/1213/146
f 575/1213/146 574/1215/147 595/1214/147
f 569/1216/154 568/1217/155 596/1218/155
f 596/1218/155 597/1219/154 569/1216/154
f 571/1220/153 569/1216/154 597/1219/154
f 597/1219/154 598/1221/153 571/1220/153
f 572/1222/151 571/1223/153 598/1224/153
f 598/1224/153 599/1225/151 572/1222/151
f 573/1226/152 572/1222/151 599/1225/151
f 599/1225/151 600/1227/152 573/1226/152
f 563/1228/149 562/1229/150 601/1230/150
f 601/1230/150 602/1231/149 563/1228/149
f 565/1232/148 563/1228/149 602/1231/149
f 602/1231/149 603/1233/148 565/1232/148
f 566/1234/146 565/1235/148 603/1236/148
f 603/1236/148 604/1237/146 566/1234/146
f 567/1238/147 566/1234/146 604/1237/146
f 604/1237/146 605/1239/147 567/1238/147
f 601/1230/150 562/1229/150 390/1240/144
f 390/1240/144 558/1241/144 601/1230/150
f 570/1176/17 198/414/17 199/1242/17
f 570/1176/17 199/1242/17 564/1170/17
f 570/1176/17 564/1170/17 567/1173/17
f 567/1173/17 568/1174/17 570/1176/17
f 564/1170/17 199/1242/17 238/789/17
f 564/1170/17 238/789/17 390/788/17
f 390/788/17 562/1168/17 564/1170/17
f 596/1218/155 568/1217/155 567/1238/147
f 567/1238/147 605/1239/147 596/1218/155
f 559/1243/145 391/1244/145 573/1226/152
f 573/1226/152 600/1227/152 559/1243/145
f 391/790/17 221/409/17 198/414/17
f 391/790/17 198/414/17 570/1176/17
f 570/1176/17 573/1179/17 391/790/17
f 561/1245/144 203/1246/144 579/1206/150
f 579/1206/150 592/1205/150 561/1245/144
f 203/389/2 202/388/2 389/1247/2
f 203/389/2 389/1247/2 576/1182/2
f 576/1182/2 579/1185/2 203/389/2
f 595/1214/147 574/1215/147 585/1202/155
f 585/1202/155 590/1203/155 595/1214/147
f 576/1182/2 389/1247/2 388/810/2
f 576/1182/2 388/810/2 582/1188/2
f 576/1182/2 582/1188/2 585/1191/2
f 585/1191/2 574/1180/2 576/1182/2
f 586/1194/152 580/1193/152 200/1248/145
f 200/1248/145 560/1249/145 586/1194/152
f 582/1188/2 388/810/2 201/387/2
f 582/1188/2 201/387/2 200/386/2
f 200/386/2 580/1186/2 582/1188/2
f 586/1250/2 560/1251/2 561/1252/2
f 586/1250/2 561/1252/2 592/1253/2
f 586/1250/2 592/1253/2 591/1254/2
f 586/1250/2 591/1254/2 593/1255/2
f 586/1250/2 593/1255/2 594/1256/2
f 586/1250/2 594/1256/2 595/1257/2
f 586/1250/2 595/1257/2 590/1258/2
f 586/1250/2 590/1258/2 589/1259/2
f 586/1250/2 589/1259/2 588/1260/2
f 588/1260/2 587/1261/2 586/1250/2
f 558/1262/17 559/1263/17 600/1264/17
f 558/1262/17 600/1264/17 599/1265/17
f 558/1262/17 599/1265/17 598/1266/17
f 558/1262/17 598/1266/17 597/1267/17
f 558/1262/17 597/1267/17 596/1268/17
f 558/1262/17 596/1268/17 605/1269/17
f 558/1262/17 605/1269/17 604/1270/17
f 558/1262/17 604/1270/17 603/1271/17
f 558/1262/17 603/1271/17 602/1272/17
f 602/1272/17 601/1273/17 558/1262/17
